<?xml version="1.0" encoding="utf-8"?>
<!-- Generator: Adobe Illustrator 19.0.1, SVG Export Plug-In . SVG Version: 6.00 Build 0)  -->
<svg version="1.1" id="Layer_1" xmlns="http://www.w3.org/2000/svg" xmlns:xlink="http://www.w3.org/1999/xlink" x="0px" y="0px"
	 width="337.5px" height="124px" viewBox="-128 358.9 337.5 124" style="enable-background:new -128 358.9 337.5 124;"
	 xml:space="preserve">
<style type="text/css">
	.st0{fill:#3A99B0;}
	.st1{fill:#33ADC8;}
	.st2{fill:#E43470;}
</style>
<g>
	<g>
		<path class="st0" d="M-107.7,450.8c1.7-0.7,3.2-2,4.4-3.7c1.1-1.4,2.2-3.4,3.1-5.9c0.9-2.5,1.4-5.8,1.4-9.7
			c0-4.1-0.5-7.5-1.4-10.1c-0.9-2.7-2-4.8-3.1-6.3c-1.3-1.8-2.8-3.2-4.4-4.1V450.8z M-118.1,400.7h-4.9v-8.9h4.8
			c0-5.4,0-9.4,0.1-11.9c0-2.6,0.1-3.9,0.1-4c0-1.5,0.2-3,0.6-4.5s1.2-2.9,2.3-4.1c1.1-1.2,2.6-2.2,4.5-2.9c1.9-0.7,4.4-1.1,7.4-1.1
			l4.1,9h-2.5c-1.3,0-2.3,0.2-3.1,0.6c-0.8,0.4-1.4,0.8-1.9,1.4c-0.4,0.6-0.7,1.1-0.9,1.7c-0.1,0.6-0.2,1.1-0.2,1.5v14.4h14.3v8.9
			h-7.2h-4.7c-1.4,0-2.1,0-2.3,0.1c0.1,0.1,0.7,0.3,1.7,0.7c1,0.4,2.1,1.1,3.4,2c1.3,0.9,2.7,2.2,4.2,3.7c1.5,1.5,2.9,3.4,4.2,5.6
			c1.3,2.2,2.3,4.9,3.2,7.9c0.8,3.1,1.3,6.6,1.3,10.5c0,3.6-0.4,6.9-1.2,9.8c-0.8,2.9-1.9,5.6-3.2,7.9c-1.3,2.3-2.9,4.3-4.6,6.1
			c-1.7,1.7-3.5,3.2-5.3,4.5c-4.2,3-8.9,5.1-14.2,6.5V400.7z"/>
		<path class="st0" d="M-64.3,404.2c0-1.2-0.3-2.2-0.8-2.8c-0.5-0.7-1.1-1.2-1.7-1.5c-0.6-0.3-1.3-0.5-2-0.6
			c-0.7-0.1-1.1-0.1-1.4-0.1c-1.7,0-3.2,0.4-4.4,1.1c-1.3,0.7-2.4,1.7-3.2,2.9c-0.9,1.2-1.5,2.5-2,3.9c-0.4,1.4-0.7,2.9-0.7,4.3
			c0,0.1,0.3,0.3,1,0.5c0.7,0.2,1.9,0.3,3.7,0.3c2.8,0,5-0.4,6.5-1.1c1.5-0.7,2.6-1.6,3.4-2.5c0.7-0.9,1.2-1.8,1.3-2.6
			C-64.4,405-64.3,404.4-64.3,404.2 M-65.6,438.1c-4.2,0-7.8-0.5-10.8-1.4c-3-0.9-5.4-2.1-7.4-3.5c-2-1.4-3.5-3.1-4.5-4.8
			c-1.1-1.8-1.9-3.6-2.4-5.3c-0.5-1.8-0.9-3.5-1-5.1c-0.1-1.6-0.2-3-0.2-4c0-1,0.1-2.3,0.3-3.9c0.2-1.6,0.6-3.2,1.2-5
			c0.6-1.7,1.4-3.5,2.5-5.3c1.1-1.8,2.5-3.4,4.2-4.8c1.7-1.4,3.8-2.6,6.2-3.5c2.4-0.9,5.3-1.4,8.6-1.4c0.3,0,0.8,0,1.7,0.1
			c0.8,0.1,1.8,0.2,3,0.5c1.1,0.3,2.3,0.7,3.6,1.3c1.2,0.6,2.4,1.4,3.5,2.5c1.1,1.1,2,2.4,2.6,4c0.7,1.6,1,3.6,1,6
			c0,0.4-0.1,1.5-0.4,3.2c-0.3,1.7-1.1,3.5-2.4,5.5c-1.3,2-3.4,3.7-6.3,5.2c-2.9,1.5-6.9,2.3-12.1,2.3c-0.1,0-0.3,0-0.8-0.1
			c-0.4,0-0.9-0.1-1.4-0.1c-0.5,0-1-0.1-1.5-0.2c-0.5-0.1-0.8-0.1-1-0.2c-0.1,0-0.2,0.1-0.2,0.2c0,0.1,0.1,0.7,0.4,1.6
			c0.3,0.9,0.9,1.9,1.9,3c1,1.1,2.4,2.1,4.4,3c2,0.9,4.6,1.3,8.1,1.3c4,0,7.9-0.9,11.7-2.7c3.7-1.8,6.6-4.6,8.7-8.4
			c0.5,0.7,1,1.5,1.5,2.2c0.4,0.6,0.8,1.2,1.3,1.9c0.5,0.7,0.9,1.2,1.2,1.6c0.3,0.3,0.4,0.6,0.4,0.8c0,0.8-0.5,2-1.5,3.4
			c-1,1.5-2.6,3-4.6,4.4c-2.1,1.5-4.7,2.8-8,3.9C-57.3,437.5-61.1,438.1-65.6,438.1"/>
		<path class="st1" d="M-33.3,399.5c-0.5,0-1.1,0-1.8,0.1c-0.7,0.1-1.3,0.2-1.8,0.3c-0.7,0.1-1.3,0.2-2,0.3v27.2
			c0.5,0.2,1,0.4,1.5,0.5c0.5,0.1,1,0.2,1.5,0.3c0.5,0.1,1.1,0.1,1.8,0.1c0.6,0,1.7-0.1,3.2-0.3c1.5-0.2,3.1-0.8,4.7-1.8
			c1.6-1,3-2.5,4.2-4.5c1.2-2.1,1.8-4.9,1.8-8.6c0-3.3-0.6-5.9-1.8-7.7c-1.2-1.8-2.5-3.2-4-4c-1.5-0.9-3-1.4-4.4-1.6
			C-31.8,399.6-32.7,399.5-33.3,399.5 M-49.6,373h-4.2v-9.1h14.9v27.4c0.7-0.1,1.5-0.3,2.2-0.5c0.7-0.1,1.4-0.3,2.1-0.4
			c0.7-0.1,1.4-0.2,2.2-0.2c0.6,0,1.6,0.1,3,0.2c1.4,0.1,3,0.4,4.7,0.9c1.7,0.5,3.5,1.2,5.4,2.1c1.9,0.9,3.6,2.3,5.1,4
			c1.5,1.7,2.8,3.9,3.8,6.6c1,2.7,1.5,5.9,1.5,9.6c0,0.7-0.1,1.9-0.3,3.3c-0.2,1.5-0.5,3.1-1.1,4.9c-0.5,1.8-1.4,3.6-2.5,5.5
			c-1.1,1.9-2.6,3.6-4.5,5.1c-1.9,1.5-4.2,2.8-7.1,3.8c-2.8,1-6.2,1.5-10.2,1.5c-2.8,0-5.2-0.2-7.1-0.5c-1.9-0.3-3.4-0.6-4.6-1
			c-1.4-0.4-2.6-0.9-3.4-1.4V373z"/>
		<path class="st1" d="M1.4,391.8v7.7v0.2c0,0.1,0.1,0.2,0.2,0.2c0.1,0,0.2-0.1,0.4-0.4c0.1-0.1,0.5-0.6,1.2-1.5
			c0.7-0.9,1.8-2,3.2-3.1c1.4-1.1,3.3-2.1,5.4-3c2.2-0.9,4.8-1.4,7.7-1.4c0.5,0,1.1,0,1.8,0.1c0.7,0.1,1.3,0.2,1.6,0.4v18H14v-7.1
			c-2,0-3.6,0.5-4.9,1.5c-1.3,1-2.5,2.2-3.4,3.4c-0.8,1.1-1.4,2.4-1.9,3.6c-0.5,1.3-0.8,2.5-1.1,3.7c-0.2,1.2-0.4,2.3-0.5,3.3
			c-0.1,1-0.1,1.7-0.1,2.2v16.4H-8.7v-44.4H1.4z"/>
		<path class="st0" d="M51.6,399.8l-1.2-0.3c-0.4-0.1-0.9-0.1-1.5-0.2c-0.6-0.1-1.4-0.1-2.3-0.1c-1.2,0-2.6,0.3-4.3,0.8
			c-1.6,0.5-3.2,1.4-4.6,2.7c-1.4,1.2-2.7,2.9-3.7,5.1c-1,2.2-1.5,4.8-1.5,8.1c0,0.7,0.1,1.6,0.2,2.9c0.1,1.3,0.4,2.6,1,3.8
			c0.5,1.3,1.4,2.4,2.5,3.3c1.1,0.9,2.8,1.4,4.8,1.4c1.7,0,3.2-0.3,4.5-1c1.3-0.7,2.5-1.5,3.4-2.6c0.9-1.1,1.6-2.3,2.1-3.6
			c0.5-1.3,0.7-2.6,0.7-3.9V399.8z M62.3,420.7c0,0.5,0.1,1.2,0.2,1.9c0.1,0.7,0.4,1.4,0.7,2c0.3,0.6,0.8,1.1,1.5,1.6
			c0.7,0.4,1.5,0.7,2.5,0.7c1.3,0,2.7-0.5,4.2-1.4c1.5-0.9,2.7-2.9,3.7-5.8l3.6,5c-0.4-0.6-0.2,0.6-0.2,0.7c0.1,0.3-0.4,0.9-0.4,1.1
			c0,0.6,1.1,1.4,0.5,2.7c-0.6,1.2-1.5,2.5-2.7,3.7c-1.2,1.2-2.8,2.3-4.8,3.3c-2,0.9-4.3,1.4-7,1.4c-2.8,0-5.1-0.6-6.9-1.9
			c-1.9-1.3-3.1-3-3.8-5c-0.1-0.3-0.1-0.4-0.2-0.4l-0.3,0.3c-1.4,2.5-3.4,4.4-6.1,5.8c-2.7,1.3-5.5,2-8.5,2c-2.6,0-4.9-0.4-6.8-1.2
			c-1.9-0.8-3.5-1.8-4.7-3.1c-1.3-1.2-2.3-2.7-3-4.2c-0.7-1.6-1.3-3.1-1.7-4.7c-0.4-1.5-0.7-3-0.8-4.3c-0.1-1.3-0.2-2.4-0.2-3.2
			c0-3.2,0.5-6.5,1.4-9.7c0.9-3.3,2.4-6.2,4.6-8.8c2.2-2.6,5-4.7,8.5-6.4c3.5-1.6,7.9-2.5,13.1-2.5c1.5,0,3.1,0.1,4.7,0.3
			c1.6,0.2,3.1,0.4,4.4,0.7c1.3,0.2,2.8,0.6,4.5,1V420.7z"/>
		<path class="st0" d="M84.8,429.1c2.3,0,4.1-0.2,5.4-0.6c1.3-0.4,2.4-0.9,3.1-1.5c0.7-0.6,1.2-1.3,1.4-2c0.2-0.7,0.3-1.4,0.3-2.2
			c0-1.6-0.6-2.8-1.8-3.7c-1.2-0.8-2.7-1.5-4.5-2c-1.8-0.5-3.7-1-5.8-1.4c-2.1-0.4-4-1.1-5.8-2c-1.8-0.9-3.3-2.1-4.5-3.6
			c-1.2-1.5-1.8-3.6-1.8-6.3c0-0.3,0.1-1.1,0.4-2.5c0.2-1.4,1-2.9,2.2-4.5c1.2-1.6,3.2-3.1,5.9-4.3c2.7-1.3,6.5-1.9,11.3-1.9
			c2.1,0,3.9,0.1,5.4,0.2c1.5,0.1,2.8,0.2,3.8,0.4c1.2,0.1,2.2,0.3,3,0.4v8.7c-1-0.1-2.1-0.3-3.3-0.5c-1.1-0.1-2.4-0.3-3.9-0.4
			c-1.5-0.1-3.2-0.2-5-0.2c-0.6,0-1.4,0-2.4,0.1c-1,0-2,0.2-3,0.5c-1,0.3-1.8,0.8-2.6,1.4c-0.7,0.6-1.1,1.5-1.1,2.6
			c0,1.3,0.6,2.2,1.8,2.8c1.2,0.6,2.7,1.1,4.5,1.6c1.8,0.4,3.8,0.9,5.9,1.4c2.1,0.5,4,1.2,5.9,2.2c1.8,1,3.3,2.3,4.5,4
			c1.2,1.7,1.8,4,1.8,6.9c0,1.1-0.2,2.6-0.7,4.3c-0.4,1.8-1.4,3.4-2.8,5c-1.4,1.6-3.5,3-6.3,4.2c-2.8,1.2-6.5,1.8-11.2,1.8
			c-3,0-5.5-0.1-7.5-0.3c-2-0.2-3.5-0.4-4.7-0.7c-1.3-0.3-2.4-0.6-3.2-1v-18.1h9.6v10.5c0.4,0.1,0.9,0.3,1.4,0.4
			c0.5,0.1,1.1,0.2,1.8,0.3C83,429,83.9,429.1,84.8,429.1"/>
	</g>
	<polygon class="st1" points="-46.2,458.2 -47.2,458.2 -47.2,448.3 -41.3,448.3 -41.3,449.2 -46.2,449.2 -46.2,452.6 -41.6,452.6 
		-41.6,453.5 -46.2,453.5 	"/>
	<g>
		<path class="st1" d="M-34.8,454.4c0-0.6-0.2-1.1-0.6-1.5c-0.4-0.4-0.9-0.6-1.6-0.6c-0.3,0-0.6,0.1-0.9,0.2
			c-0.3,0.1-0.5,0.3-0.7,0.5c-0.2,0.2-0.4,0.4-0.5,0.7c-0.1,0.3-0.2,0.5-0.2,0.8H-34.8z M-39.3,455.2c0,0.3,0.1,0.6,0.2,0.9
			c0.1,0.3,0.3,0.5,0.5,0.8c0.2,0.2,0.5,0.4,0.7,0.5c0.3,0.1,0.6,0.2,0.9,0.2c0.5,0,0.9-0.1,1.3-0.3c0.4-0.2,0.6-0.5,0.8-0.8
			l0.7,0.6c-0.4,0.5-0.8,0.9-1.3,1.1c-0.5,0.2-1,0.3-1.5,0.3c-0.5,0-0.9-0.1-1.4-0.3c-0.4-0.2-0.8-0.4-1.1-0.7
			c-0.3-0.3-0.5-0.7-0.7-1.1c-0.2-0.4-0.3-0.9-0.3-1.4c0-0.5,0.1-1,0.3-1.4c0.2-0.4,0.4-0.8,0.7-1.1c0.3-0.3,0.6-0.5,1.1-0.7
			c0.4-0.2,0.8-0.3,1.3-0.3c0.5,0,0.9,0.1,1.3,0.3c0.4,0.2,0.7,0.4,1,0.7c0.3,0.3,0.5,0.6,0.6,1c0.1,0.4,0.2,0.8,0.2,1.3v0.4H-39.3z
			"/>
		<path class="st1" d="M-31.7,454.9c0,0.4,0.1,0.7,0.2,1c0.1,0.3,0.3,0.6,0.5,0.8c0.2,0.2,0.5,0.4,0.8,0.6c0.3,0.1,0.6,0.2,1,0.2
			c0.4,0,0.7-0.1,1-0.2c0.3-0.1,0.6-0.3,0.8-0.6c0.2-0.2,0.4-0.5,0.5-0.8c0.1-0.3,0.2-0.7,0.2-1c0-0.4-0.1-0.7-0.2-1
			c-0.1-0.3-0.3-0.6-0.5-0.8c-0.2-0.2-0.5-0.4-0.8-0.6c-0.3-0.1-0.7-0.2-1-0.2c-0.4,0-0.7,0.1-1,0.2c-0.3,0.1-0.6,0.3-0.8,0.6
			c-0.2,0.2-0.4,0.5-0.5,0.8C-31.7,454.2-31.7,454.5-31.7,454.9 M-25.7,458.2h-0.9v-1.1h0c-0.1,0.2-0.3,0.4-0.5,0.6
			c-0.2,0.2-0.4,0.3-0.6,0.4c-0.2,0.1-0.5,0.2-0.7,0.2c-0.2,0-0.5,0.1-0.7,0.1c-0.5,0-1-0.1-1.4-0.3c-0.4-0.2-0.8-0.4-1.1-0.7
			c-0.3-0.3-0.5-0.7-0.7-1.1c-0.2-0.4-0.3-0.9-0.3-1.4c0-0.5,0.1-1,0.3-1.4c0.2-0.4,0.4-0.8,0.7-1.1c0.3-0.3,0.7-0.5,1.1-0.7
			c0.4-0.2,0.9-0.3,1.4-0.3c0.2,0,0.4,0,0.7,0.1c0.2,0,0.5,0.1,0.7,0.2c0.2,0.1,0.4,0.2,0.6,0.4c0.2,0.2,0.4,0.4,0.5,0.6h0v-5.1h0.9
			V458.2z"/>
		<path class="st1" d="M-18.8,454.4c0-0.6-0.2-1.1-0.6-1.5c-0.4-0.4-0.9-0.6-1.6-0.6c-0.3,0-0.6,0.1-0.9,0.2
			c-0.3,0.1-0.5,0.3-0.7,0.5c-0.2,0.2-0.4,0.4-0.5,0.7c-0.1,0.3-0.2,0.5-0.2,0.8H-18.8z M-23.2,455.2c0,0.3,0.1,0.6,0.2,0.9
			c0.1,0.3,0.3,0.5,0.5,0.8c0.2,0.2,0.5,0.4,0.7,0.5c0.3,0.1,0.6,0.2,0.9,0.2c0.5,0,0.9-0.1,1.3-0.3c0.4-0.2,0.6-0.5,0.8-0.8
			l0.7,0.6c-0.4,0.5-0.8,0.9-1.3,1.1c-0.5,0.2-1,0.3-1.5,0.3c-0.5,0-0.9-0.1-1.4-0.3c-0.4-0.2-0.8-0.4-1.1-0.7
			c-0.3-0.3-0.5-0.7-0.7-1.1c-0.2-0.4-0.3-0.9-0.3-1.4c0-0.5,0.1-1,0.3-1.4c0.2-0.4,0.4-0.8,0.7-1.1c0.3-0.3,0.6-0.5,1.1-0.7
			c0.4-0.2,0.8-0.3,1.3-0.3c0.5,0,0.9,0.1,1.3,0.3c0.4,0.2,0.7,0.4,1,0.7c0.3,0.3,0.5,0.6,0.6,1c0.1,0.4,0.2,0.8,0.2,1.3v0.4H-23.2z
			"/>
		<path class="st1" d="M-16.1,453.7c0-0.3,0-0.6,0-0.9c0-0.3,0-0.7,0-1.2h0.9v1.2h0c0.1-0.2,0.2-0.3,0.3-0.5
			c0.1-0.2,0.3-0.3,0.4-0.4c0.2-0.1,0.4-0.2,0.6-0.3c0.2-0.1,0.5-0.1,0.8-0.1c0.3,0,0.5,0,0.7,0.1l-0.2,0.9c-0.1,0-0.3-0.1-0.5-0.1
			c-0.4,0-0.7,0.1-0.9,0.2c-0.3,0.1-0.5,0.3-0.6,0.5c-0.2,0.2-0.3,0.4-0.4,0.7c-0.1,0.2-0.1,0.5-0.1,0.7v3.7h-0.9V453.7z"/>
		<path class="st1" d="M-8,454.9c-0.2,0-0.5,0-0.9,0c-0.4,0-0.7,0.1-1,0.2c-0.3,0.1-0.6,0.2-0.8,0.4c-0.2,0.2-0.3,0.4-0.3,0.8
			c0,0.2,0,0.4,0.1,0.6c0.1,0.2,0.2,0.3,0.4,0.4c0.1,0.1,0.3,0.2,0.5,0.2c0.2,0,0.4,0.1,0.6,0.1c0.3,0,0.6-0.1,0.9-0.2
			c0.2-0.1,0.5-0.3,0.6-0.5c0.2-0.2,0.3-0.4,0.4-0.7c0.1-0.3,0.1-0.5,0.1-0.8v-0.5H-8z M-7.5,454.2V454c0-1.1-0.6-1.7-1.7-1.7
			c-0.8,0-1.4,0.3-2,0.8l-0.6-0.7c0.6-0.6,1.5-1,2.8-1c0.3,0,0.6,0,0.9,0.1c0.3,0.1,0.5,0.2,0.8,0.4c0.2,0.2,0.4,0.4,0.5,0.7
			c0.1,0.3,0.2,0.6,0.2,1v2.9c0,0.3,0,0.5,0,0.8c0,0.3,0,0.5,0.1,0.7h-0.9c0-0.2,0-0.3-0.1-0.5c0-0.2,0-0.4,0-0.5h0
			c-0.3,0.4-0.6,0.8-1,0.9c-0.4,0.2-0.8,0.3-1.4,0.3c-0.3,0-0.6,0-0.8-0.1s-0.5-0.2-0.7-0.4c-0.2-0.2-0.4-0.4-0.5-0.6
			s-0.2-0.5-0.2-0.8c0-0.5,0.1-1,0.4-1.3c0.3-0.3,0.6-0.5,1-0.7c0.4-0.1,0.9-0.2,1.3-0.3c0.5,0,0.9-0.1,1.3-0.1H-7.5z"/>
		<path class="st1" d="M-2,459L-2,459c0.1,0,0.2,0,0.3-0.1c0.1,0,0.2,0,0.3,0c0.3,0,0.5,0.1,0.8,0.3c0.2,0.2,0.3,0.4,0.3,0.8
			c0,0.2,0,0.4-0.1,0.6c-0.1,0.2-0.2,0.3-0.4,0.4c-0.2,0.1-0.3,0.2-0.5,0.2c-0.2,0-0.4,0.1-0.6,0.1c-0.5,0-0.9-0.1-1.4-0.3l0.2-0.5
			c0.3,0.2,0.7,0.3,1,0.3c0.2,0,0.4,0,0.6-0.1c0.2-0.1,0.3-0.3,0.3-0.5c0,0,0-0.1,0-0.2c0-0.1-0.1-0.1-0.1-0.2
			c0-0.1-0.1-0.1-0.2-0.2c-0.1,0-0.2-0.1-0.4-0.1c-0.1,0-0.2,0-0.4,0c-0.1,0-0.2,0.1-0.3,0.1l-0.3-0.2l0.8-1.1
			c-0.3,0-0.5-0.1-0.8-0.2c-0.4-0.2-0.8-0.4-1.1-0.7c-0.3-0.3-0.5-0.7-0.7-1.1c-0.2-0.4-0.2-0.9-0.2-1.4c0-0.5,0.1-1,0.2-1.4
			c0.2-0.4,0.4-0.8,0.7-1.1c0.3-0.3,0.7-0.5,1.1-0.7c0.4-0.2,0.9-0.3,1.4-0.2c0.4,0,0.9,0.1,1.3,0.3c0.4,0.2,0.8,0.5,1.1,0.8
			l-0.8,0.6c-0.2-0.2-0.4-0.4-0.7-0.6c-0.3-0.2-0.6-0.3-1-0.3c-0.4,0-0.7,0.1-1,0.2c-0.3,0.1-0.6,0.3-0.8,0.5
			c-0.2,0.2-0.4,0.5-0.5,0.8c-0.1,0.3-0.2,0.7-0.2,1c0,0.4,0.1,0.7,0.2,1s0.3,0.6,0.5,0.8c0.2,0.2,0.5,0.4,0.8,0.5s0.6,0.2,1,0.2
			c0.4,0,0.7-0.1,1-0.3c0.3-0.2,0.5-0.4,0.7-0.6l0.8,0.6c-0.3,0.4-0.7,0.7-1.1,0.8c-0.4,0.2-0.8,0.3-1.3,0.3h-0.1L-2,459z"/>
		<path class="st1" d="M5.8,454.9c-0.2,0-0.5,0-0.9,0c-0.4,0-0.7,0.1-1,0.2c-0.3,0.1-0.6,0.2-0.8,0.4c-0.2,0.2-0.3,0.4-0.3,0.8
			c0,0.2,0,0.4,0.1,0.6c0.1,0.2,0.2,0.3,0.4,0.4c0.1,0.1,0.3,0.2,0.5,0.2c0.2,0,0.4,0.1,0.6,0.1c0.3,0,0.6-0.1,0.9-0.2
			c0.2-0.1,0.5-0.3,0.6-0.5c0.2-0.2,0.3-0.4,0.4-0.7c0.1-0.3,0.1-0.5,0.1-0.8v-0.5H5.8z M2.4,450.1c0-0.2,0.1-0.4,0.1-0.5
			c0.1-0.2,0.1-0.3,0.2-0.5c0.1-0.1,0.2-0.2,0.4-0.3c0.1-0.1,0.3-0.1,0.5-0.1c0.2,0,0.3,0,0.5,0.1c0.2,0.1,0.3,0.1,0.5,0.2
			c0.2,0.1,0.3,0.1,0.5,0.2c0.2,0.1,0.3,0.1,0.4,0.1c0.2,0,0.4-0.1,0.5-0.2c0.1-0.1,0.2-0.3,0.2-0.5H7c0,0.2-0.1,0.4-0.1,0.5
			c-0.1,0.2-0.1,0.3-0.2,0.5c-0.1,0.1-0.2,0.2-0.4,0.3c-0.1,0.1-0.3,0.1-0.5,0.1c-0.2,0-0.3,0-0.5-0.1c-0.2-0.1-0.3-0.1-0.5-0.2
			c-0.2-0.1-0.3-0.2-0.5-0.2c-0.2-0.1-0.3-0.1-0.5-0.1c-0.2,0-0.4,0.1-0.5,0.2c-0.1,0.1-0.2,0.3-0.2,0.5H2.4z M6.3,454.2V454
			c0-1.1-0.6-1.7-1.7-1.7c-0.8,0-1.4,0.3-2,0.8L2,452.4c0.6-0.6,1.5-1,2.8-1c0.3,0,0.6,0,0.9,0.1c0.3,0.1,0.5,0.2,0.8,0.4
			c0.2,0.2,0.4,0.4,0.5,0.7c0.1,0.3,0.2,0.6,0.2,1v2.9c0,0.3,0,0.5,0,0.8c0,0.3,0,0.5,0.1,0.7H6.4c0-0.2,0-0.3-0.1-0.5
			c0-0.2,0-0.4,0-0.5h0c-0.3,0.4-0.6,0.8-1,0.9c-0.4,0.2-0.8,0.3-1.4,0.3c-0.3,0-0.6,0-0.8-0.1s-0.5-0.2-0.7-0.4
			c-0.2-0.2-0.4-0.4-0.5-0.6s-0.2-0.5-0.2-0.8c0-0.5,0.1-1,0.4-1.3c0.3-0.3,0.6-0.5,1-0.7c0.4-0.1,0.9-0.2,1.3-0.3
			c0.5,0,0.9-0.1,1.3-0.1H6.3z"/>
		<path class="st1" d="M14.8,454.9c0-0.4-0.1-0.7-0.2-1c-0.1-0.3-0.3-0.6-0.5-0.8c-0.2-0.2-0.5-0.4-0.8-0.6c-0.3-0.1-0.6-0.2-1-0.2
			c-0.4,0-0.7,0.1-1,0.2c-0.3,0.1-0.6,0.3-0.8,0.6c-0.2,0.2-0.4,0.5-0.5,0.8c-0.1,0.3-0.2,0.7-0.2,1c0,0.4,0.1,0.7,0.2,1
			c0.1,0.3,0.3,0.6,0.5,0.8c0.2,0.2,0.5,0.4,0.8,0.6c0.3,0.1,0.6,0.2,1,0.2c0.4,0,0.7-0.1,1-0.2c0.3-0.1,0.6-0.3,0.8-0.6
			c0.2-0.2,0.4-0.5,0.5-0.8C14.8,455.6,14.8,455.3,14.8,454.9 M15.8,454.9c0,0.5-0.1,1-0.3,1.4c-0.2,0.4-0.4,0.8-0.7,1.1
			c-0.3,0.3-0.7,0.5-1.1,0.7c-0.4,0.2-0.9,0.3-1.4,0.3c-0.5,0-1-0.1-1.4-0.3c-0.4-0.2-0.8-0.4-1.1-0.7c-0.3-0.3-0.5-0.7-0.7-1.1
			c-0.2-0.4-0.3-0.9-0.3-1.4c0-0.5,0.1-1,0.3-1.4c0.2-0.4,0.4-0.8,0.7-1.1c0.3-0.3,0.7-0.5,1.1-0.7c0.4-0.2,0.9-0.3,1.4-0.3
			c0.5,0,1,0.1,1.4,0.3c0.4,0.2,0.8,0.4,1.1,0.7c0.3,0.3,0.5,0.7,0.7,1.1C15.7,454,15.8,454.4,15.8,454.9"/>
		<path class="st1" d="M22.5,457.3h1.9c0.4,0,0.7,0,1-0.1c0.3-0.1,0.6-0.2,0.8-0.3s0.4-0.3,0.6-0.6c0.1-0.2,0.2-0.5,0.2-0.8
			c0-0.7-0.2-1.1-0.6-1.5c-0.4-0.3-1-0.5-1.9-0.5h-2.1V457.3z M22.5,452.6h2c0.2,0,0.5,0,0.7-0.1c0.2-0.1,0.5-0.2,0.6-0.3
			c0.2-0.1,0.3-0.3,0.5-0.5c0.1-0.2,0.2-0.5,0.2-0.8c0-0.1,0-0.2-0.1-0.4c0-0.2-0.1-0.4-0.3-0.6c-0.1-0.2-0.4-0.3-0.6-0.5
			c-0.3-0.1-0.7-0.2-1.1-0.2h-1.9V452.6z M21.5,448.3h3c0.4,0,0.8,0,1.2,0.1c0.4,0.1,0.7,0.2,1,0.4c0.3,0.2,0.5,0.5,0.7,0.8
			c0.2,0.3,0.3,0.7,0.3,1.2c0,0.5-0.2,1-0.5,1.4c-0.3,0.4-0.7,0.6-1.3,0.8v0c0.7,0.1,1.2,0.3,1.6,0.7c0.4,0.4,0.6,1,0.6,1.7
			c0,0.2,0,0.4-0.1,0.7c-0.1,0.3-0.2,0.6-0.5,0.9c-0.3,0.3-0.6,0.6-1.1,0.8c-0.5,0.2-1.1,0.3-1.9,0.3h-3V448.3z"/>
		<path class="st1" d="M29.9,453.7c0-0.3,0-0.6,0-0.9c0-0.3,0-0.7,0-1.2h0.9v1.2h0c0.1-0.2,0.2-0.3,0.3-0.5c0.1-0.2,0.3-0.3,0.4-0.4
			c0.2-0.1,0.4-0.2,0.6-0.3c0.2-0.1,0.5-0.1,0.8-0.1c0.3,0,0.5,0,0.7,0.1l-0.2,0.9c-0.1,0-0.3-0.1-0.5-0.1c-0.4,0-0.7,0.1-0.9,0.2
			c-0.3,0.1-0.5,0.3-0.6,0.5c-0.2,0.2-0.3,0.4-0.4,0.7c-0.1,0.2-0.1,0.5-0.1,0.7v3.7h-0.9V453.7z"/>
		<path class="st1" d="M38.1,454.9c-0.2,0-0.5,0-0.9,0c-0.4,0-0.7,0.1-1,0.2c-0.3,0.1-0.6,0.2-0.8,0.4c-0.2,0.2-0.3,0.4-0.3,0.8
			c0,0.2,0,0.4,0.1,0.6c0.1,0.2,0.2,0.3,0.4,0.4c0.1,0.1,0.3,0.2,0.5,0.2c0.2,0,0.4,0.1,0.6,0.1c0.3,0,0.6-0.1,0.9-0.2
			c0.2-0.1,0.5-0.3,0.6-0.5c0.2-0.2,0.3-0.4,0.4-0.7c0.1-0.3,0.1-0.5,0.1-0.8v-0.5H38.1z M38.5,454.2V454c0-1.1-0.6-1.7-1.7-1.7
			c-0.8,0-1.4,0.3-2,0.8l-0.6-0.7c0.6-0.6,1.5-1,2.8-1c0.3,0,0.6,0,0.9,0.1c0.3,0.1,0.5,0.2,0.8,0.4c0.2,0.2,0.4,0.4,0.5,0.7
			c0.1,0.3,0.2,0.6,0.2,1v2.9c0,0.3,0,0.5,0,0.8c0,0.3,0,0.5,0.1,0.7h-0.9c0-0.2,0-0.3-0.1-0.5c0-0.2,0-0.4,0-0.5h0
			c-0.3,0.4-0.6,0.8-1,0.9c-0.4,0.2-0.8,0.3-1.4,0.3c-0.3,0-0.6,0-0.8-0.1c-0.3-0.1-0.5-0.2-0.7-0.4c-0.2-0.2-0.4-0.4-0.5-0.6
			c-0.1-0.2-0.2-0.5-0.2-0.8c0-0.5,0.1-1,0.4-1.3c0.3-0.3,0.6-0.5,1-0.7c0.4-0.1,0.9-0.2,1.3-0.3c0.5,0,0.9-0.1,1.3-0.1H38.5z"/>
		<path class="st1" d="M44.9,453.2c-0.1-0.3-0.3-0.5-0.6-0.6c-0.2-0.2-0.5-0.2-0.9-0.2c-0.2,0-0.3,0-0.5,0.1c-0.2,0-0.3,0.1-0.4,0.2
			c-0.1,0.1-0.2,0.2-0.3,0.3c-0.1,0.1-0.1,0.3-0.1,0.4c0,0.3,0.1,0.5,0.3,0.7c0.2,0.1,0.5,0.3,1,0.4l0.9,0.2
			c0.5,0.1,0.8,0.3,1.1,0.6c0.3,0.3,0.5,0.7,0.5,1.2c0,0.4-0.1,0.7-0.2,0.9c-0.1,0.3-0.3,0.5-0.6,0.6c-0.2,0.2-0.5,0.3-0.8,0.4
			c-0.3,0.1-0.6,0.1-0.9,0.1c-0.5,0-1-0.1-1.4-0.3c-0.4-0.2-0.8-0.5-1.1-1l0.8-0.5c0.2,0.3,0.4,0.5,0.7,0.7c0.3,0.2,0.6,0.3,1,0.3
			c0.2,0,0.4,0,0.6-0.1c0.2,0,0.4-0.1,0.5-0.2c0.1-0.1,0.3-0.2,0.4-0.3c0.1-0.1,0.1-0.3,0.1-0.5c0-0.3-0.1-0.6-0.4-0.7
			c-0.2-0.1-0.5-0.3-0.9-0.3l-0.9-0.2c-0.1,0-0.3-0.1-0.5-0.1c-0.2-0.1-0.4-0.2-0.6-0.3c-0.2-0.1-0.3-0.3-0.5-0.5
			c-0.1-0.2-0.2-0.5-0.2-0.8c0-0.3,0.1-0.6,0.2-0.9c0.1-0.3,0.3-0.5,0.5-0.6c0.2-0.2,0.5-0.3,0.8-0.4c0.3-0.1,0.6-0.1,0.9-0.1
			c0.5,0,0.9,0.1,1.3,0.3c0.4,0.2,0.7,0.5,0.9,0.9L44.9,453.2z"/>
		<path class="st1" d="M48.4,458.2h-0.9v-6.6h0.9V458.2z M48.6,449.1c0,0.2-0.1,0.4-0.2,0.5c-0.1,0.1-0.3,0.2-0.5,0.2
			c-0.2,0-0.3-0.1-0.5-0.2c-0.1-0.1-0.2-0.3-0.2-0.5c0-0.2,0.1-0.4,0.2-0.5c0.1-0.1,0.3-0.2,0.5-0.2c0.2,0,0.3,0.1,0.5,0.2
			C48.6,448.7,48.6,448.9,48.6,449.1"/>
	</g>
	<rect x="50.7" y="447.6" class="st1" width="0.9" height="10.6"/>
	<g>
		<path class="st1" d="M58.8,454.4c0-0.6-0.2-1.1-0.6-1.5c-0.4-0.4-0.9-0.6-1.6-0.6c-0.3,0-0.6,0.1-0.9,0.2
			c-0.3,0.1-0.5,0.3-0.7,0.5c-0.2,0.2-0.4,0.4-0.5,0.7c-0.1,0.3-0.2,0.5-0.2,0.8H58.8z M54.4,455.2c0,0.3,0.1,0.6,0.2,0.9
			c0.1,0.3,0.3,0.5,0.5,0.8c0.2,0.2,0.5,0.4,0.7,0.5c0.3,0.1,0.6,0.2,0.9,0.2c0.5,0,0.9-0.1,1.3-0.3c0.4-0.2,0.6-0.5,0.8-0.8
			l0.7,0.6c-0.4,0.5-0.8,0.9-1.3,1.1c-0.5,0.2-1,0.3-1.5,0.3c-0.5,0-0.9-0.1-1.4-0.3c-0.4-0.2-0.8-0.4-1.1-0.7
			c-0.3-0.3-0.5-0.7-0.7-1.1c-0.2-0.4-0.3-0.9-0.3-1.4c0-0.5,0.1-1,0.3-1.4c0.2-0.4,0.4-0.8,0.7-1.1c0.3-0.3,0.6-0.5,1.1-0.7
			c0.4-0.2,0.8-0.3,1.3-0.3c0.5,0,0.9,0.1,1.3,0.3c0.4,0.2,0.7,0.4,1,0.7c0.3,0.3,0.5,0.6,0.6,1c0.1,0.4,0.2,0.8,0.2,1.3v0.4H54.4z"
			/>
		<path class="st1" d="M62.5,458.2h-0.9v-6.6h0.9V458.2z M62.7,449.1c0,0.2-0.1,0.4-0.2,0.5c-0.1,0.1-0.3,0.2-0.5,0.2
			c-0.2,0-0.3-0.1-0.5-0.2c-0.1-0.1-0.2-0.3-0.2-0.5c0-0.2,0.1-0.4,0.2-0.5c0.1-0.1,0.3-0.2,0.5-0.2c0.2,0,0.3,0.1,0.5,0.2
			C62.7,448.7,62.7,448.9,62.7,449.1"/>
		<path class="st1" d="M64.7,453.7c0-0.3,0-0.6,0-0.9c0-0.3,0-0.7,0-1.2h0.9v1.2h0c0.1-0.2,0.2-0.3,0.3-0.5c0.1-0.2,0.3-0.3,0.4-0.4
			c0.2-0.1,0.4-0.2,0.6-0.3c0.2-0.1,0.5-0.1,0.8-0.1c0.3,0,0.5,0,0.7,0.1l-0.2,0.9c-0.1,0-0.3-0.1-0.5-0.1c-0.4,0-0.7,0.1-0.9,0.2
			c-0.3,0.1-0.5,0.3-0.6,0.5c-0.2,0.2-0.3,0.4-0.4,0.7c-0.1,0.2-0.1,0.5-0.1,0.7v3.7h-0.9V453.7z"/>
		<path class="st1" d="M72.9,454.9c-0.2,0-0.5,0-0.9,0c-0.4,0-0.7,0.1-1,0.2c-0.3,0.1-0.6,0.2-0.8,0.4c-0.2,0.2-0.3,0.4-0.3,0.8
			c0,0.2,0,0.4,0.1,0.6c0.1,0.2,0.2,0.3,0.4,0.4c0.1,0.1,0.3,0.2,0.5,0.2c0.2,0,0.4,0.1,0.6,0.1c0.3,0,0.6-0.1,0.9-0.2
			c0.2-0.1,0.5-0.3,0.6-0.5c0.2-0.2,0.3-0.4,0.4-0.7c0.1-0.3,0.1-0.5,0.1-0.8v-0.5H72.9z M73.3,454.2V454c0-1.1-0.6-1.7-1.7-1.7
			c-0.8,0-1.4,0.3-2,0.8l-0.6-0.7c0.6-0.6,1.5-1,2.8-1c0.3,0,0.6,0,0.9,0.1c0.3,0.1,0.5,0.2,0.8,0.4c0.2,0.2,0.4,0.4,0.5,0.7
			c0.1,0.3,0.2,0.6,0.2,1v2.9c0,0.3,0,0.5,0,0.8c0,0.3,0,0.5,0.1,0.7h-0.9c0-0.2,0-0.3-0.1-0.5c0-0.2,0-0.4,0-0.5h0
			c-0.3,0.4-0.6,0.8-1,0.9c-0.4,0.2-0.8,0.3-1.4,0.3c-0.3,0-0.6,0-0.8-0.1c-0.3-0.1-0.5-0.2-0.7-0.4c-0.2-0.2-0.4-0.4-0.5-0.6
			c-0.1-0.2-0.2-0.5-0.2-0.8c0-0.5,0.1-1,0.4-1.3c0.3-0.3,0.6-0.5,1-0.7c0.4-0.1,0.9-0.2,1.3-0.3c0.5,0,0.9-0.1,1.3-0.1H73.3z"/>
		<path class="st1" d="M80.6,454.9c0,0.4,0.1,0.7,0.2,1c0.1,0.3,0.3,0.6,0.5,0.8c0.2,0.2,0.5,0.4,0.8,0.6c0.3,0.1,0.6,0.2,1,0.2
			c0.4,0,0.7-0.1,1-0.2c0.3-0.1,0.6-0.3,0.8-0.6c0.2-0.2,0.4-0.5,0.5-0.8c0.1-0.3,0.2-0.7,0.2-1c0-0.4-0.1-0.7-0.2-1
			c-0.1-0.3-0.3-0.6-0.5-0.8c-0.2-0.2-0.5-0.4-0.8-0.6c-0.3-0.1-0.7-0.2-1-0.2c-0.4,0-0.7,0.1-1,0.2c-0.3,0.1-0.6,0.3-0.8,0.6
			c-0.2,0.2-0.4,0.5-0.5,0.8C80.6,454.2,80.6,454.5,80.6,454.9 M86.6,458.2h-0.9v-1.1h0c-0.1,0.2-0.3,0.4-0.5,0.6
			c-0.2,0.2-0.4,0.3-0.6,0.4c-0.2,0.1-0.5,0.2-0.7,0.2c-0.2,0-0.5,0.1-0.7,0.1c-0.5,0-1-0.1-1.4-0.3c-0.4-0.2-0.8-0.4-1.1-0.7
			c-0.3-0.3-0.5-0.7-0.7-1.1c-0.2-0.4-0.3-0.9-0.3-1.4c0-0.5,0.1-1,0.3-1.4c0.2-0.4,0.4-0.8,0.7-1.1c0.3-0.3,0.7-0.5,1.1-0.7
			c0.4-0.2,0.9-0.3,1.4-0.3c0.2,0,0.4,0,0.7,0.1c0.2,0,0.5,0.1,0.7,0.2c0.2,0.1,0.4,0.2,0.6,0.4c0.2,0.2,0.4,0.4,0.5,0.6h0v-5.1h0.9
			V458.2z"/>
		<path class="st1" d="M92.2,454.9c-0.2,0-0.5,0-0.9,0c-0.4,0-0.7,0.1-1,0.2c-0.3,0.1-0.6,0.2-0.8,0.4c-0.2,0.2-0.3,0.4-0.3,0.8
			c0,0.2,0,0.4,0.1,0.6c0.1,0.2,0.2,0.3,0.4,0.4c0.1,0.1,0.3,0.2,0.5,0.2c0.2,0,0.4,0.1,0.6,0.1c0.3,0,0.6-0.1,0.9-0.2
			c0.2-0.1,0.5-0.3,0.6-0.5c0.2-0.2,0.3-0.4,0.4-0.7c0.1-0.3,0.1-0.5,0.1-0.8v-0.5H92.2z M92.6,454.2V454c0-1.1-0.6-1.7-1.7-1.7
			c-0.8,0-1.4,0.3-2,0.8l-0.6-0.7c0.6-0.6,1.5-1,2.8-1c0.3,0,0.6,0,0.9,0.1c0.3,0.1,0.5,0.2,0.8,0.4c0.2,0.2,0.4,0.4,0.5,0.7
			c0.1,0.3,0.2,0.6,0.2,1v2.9c0,0.3,0,0.5,0,0.8c0,0.3,0,0.5,0.1,0.7h-0.9c0-0.2,0-0.3-0.1-0.5c0-0.2,0-0.4,0-0.5h0
			c-0.3,0.4-0.6,0.8-1,0.9c-0.4,0.2-0.8,0.3-1.4,0.3c-0.3,0-0.6,0-0.8-0.1c-0.3-0.1-0.5-0.2-0.7-0.4c-0.2-0.2-0.4-0.4-0.5-0.6
			c-0.1-0.2-0.2-0.5-0.2-0.8c0-0.5,0.1-1,0.4-1.3c0.3-0.3,0.6-0.5,1-0.7c0.4-0.1,0.9-0.2,1.3-0.3c0.5,0,0.9-0.1,1.3-0.1H92.6z"/>
		<path class="st1" d="M99,453.2c-0.1-0.3-0.3-0.5-0.6-0.6c-0.2-0.2-0.5-0.2-0.9-0.2c-0.2,0-0.3,0-0.5,0.1c-0.2,0-0.3,0.1-0.4,0.2
			c-0.1,0.1-0.2,0.2-0.3,0.3c-0.1,0.1-0.1,0.3-0.1,0.4c0,0.3,0.1,0.5,0.3,0.7c0.2,0.1,0.5,0.3,1,0.4l0.9,0.2
			c0.5,0.1,0.8,0.3,1.1,0.6c0.3,0.3,0.5,0.7,0.5,1.2c0,0.4-0.1,0.7-0.2,0.9c-0.1,0.3-0.3,0.5-0.6,0.6c-0.2,0.2-0.5,0.3-0.8,0.4
			c-0.3,0.1-0.6,0.1-0.9,0.1c-0.5,0-1-0.1-1.4-0.3c-0.4-0.2-0.8-0.5-1.1-1l0.8-0.5c0.2,0.3,0.4,0.5,0.7,0.7c0.3,0.2,0.6,0.3,1,0.3
			c0.2,0,0.4,0,0.6-0.1c0.2,0,0.4-0.1,0.5-0.2c0.1-0.1,0.3-0.2,0.4-0.3c0.1-0.1,0.1-0.3,0.1-0.5c0-0.3-0.1-0.6-0.4-0.7
			c-0.2-0.1-0.5-0.3-0.9-0.3l-0.9-0.2c-0.1,0-0.3-0.1-0.5-0.1c-0.2-0.1-0.4-0.2-0.6-0.3c-0.2-0.1-0.3-0.3-0.5-0.5
			c-0.1-0.2-0.2-0.5-0.2-0.8c0-0.3,0.1-0.6,0.2-0.9c0.1-0.3,0.3-0.5,0.5-0.6c0.2-0.2,0.5-0.3,0.8-0.4c0.3-0.1,0.6-0.1,0.9-0.1
			c0.5,0,0.9,0.1,1.3,0.3c0.4,0.2,0.7,0.5,0.9,0.9L99,453.2z"/>
		<path class="st1" d="M30.5,471.7c0,0.4,0.1,0.7,0.2,1c0.1,0.3,0.3,0.6,0.5,0.8c0.2,0.2,0.5,0.4,0.8,0.6c0.3,0.1,0.6,0.2,1,0.2
			c0.4,0,0.7-0.1,1-0.2c0.3-0.1,0.6-0.3,0.8-0.6c0.2-0.2,0.4-0.5,0.5-0.8c0.1-0.3,0.2-0.7,0.2-1c0-0.4-0.1-0.7-0.2-1
			c-0.1-0.3-0.3-0.6-0.5-0.8c-0.2-0.2-0.5-0.4-0.8-0.6c-0.3-0.1-0.7-0.2-1-0.2c-0.4,0-0.7,0.1-1,0.2c-0.3,0.1-0.6,0.3-0.8,0.6
			c-0.2,0.2-0.4,0.5-0.5,0.8C30.5,471,30.5,471.4,30.5,471.7 M36.5,475h-0.9v-1.1h0c-0.1,0.2-0.3,0.4-0.5,0.6
			c-0.2,0.2-0.4,0.3-0.6,0.4c-0.2,0.1-0.5,0.2-0.7,0.2c-0.2,0-0.5,0.1-0.7,0.1c-0.5,0-1-0.1-1.4-0.3c-0.4-0.2-0.8-0.4-1.1-0.7
			c-0.3-0.3-0.5-0.7-0.7-1.1c-0.2-0.4-0.3-0.9-0.3-1.4c0-0.5,0.1-1,0.3-1.4c0.2-0.4,0.4-0.8,0.7-1.1c0.3-0.3,0.7-0.5,1.1-0.7
			c0.4-0.2,0.9-0.3,1.4-0.3c0.2,0,0.4,0,0.7,0.1c0.2,0,0.5,0.1,0.7,0.2c0.2,0.1,0.4,0.2,0.6,0.4c0.2,0.2,0.4,0.4,0.5,0.6h0v-5.1h0.9
			V475z"/>
		<path class="st1" d="M43.4,471.2c0-0.6-0.2-1.1-0.6-1.5c-0.4-0.4-0.9-0.6-1.6-0.6c-0.3,0-0.6,0.1-0.9,0.2
			c-0.3,0.1-0.5,0.3-0.7,0.5c-0.2,0.2-0.4,0.4-0.5,0.7c-0.1,0.3-0.2,0.5-0.2,0.8H43.4z M39,472c0,0.3,0.1,0.6,0.2,0.9
			c0.1,0.3,0.3,0.5,0.5,0.7c0.2,0.2,0.5,0.4,0.7,0.5c0.3,0.1,0.6,0.2,0.9,0.2c0.5,0,0.9-0.1,1.3-0.3c0.4-0.2,0.6-0.5,0.8-0.8
			l0.7,0.6c-0.4,0.5-0.8,0.9-1.3,1.1c-0.5,0.2-1,0.3-1.5,0.3c-0.5,0-0.9-0.1-1.4-0.3c-0.4-0.2-0.8-0.4-1.1-0.7
			c-0.3-0.3-0.5-0.7-0.7-1.1c-0.2-0.4-0.3-0.9-0.3-1.4c0-0.5,0.1-1,0.3-1.4c0.2-0.4,0.4-0.8,0.7-1.1c0.3-0.3,0.6-0.5,1.1-0.7
			c0.4-0.2,0.8-0.3,1.3-0.3c0.5,0,0.9,0.1,1.3,0.3c0.4,0.2,0.7,0.4,1,0.7c0.3,0.3,0.5,0.6,0.6,1c0.1,0.4,0.2,0.8,0.2,1.3v0.4H39z"/>
		<path class="st1" d="M57.4,466.9c-0.3-0.4-0.7-0.6-1.2-0.8c-0.5-0.2-1-0.3-1.6-0.3c-0.6,0-1.2,0.1-1.7,0.4
			c-0.5,0.2-0.9,0.5-1.3,0.9c-0.4,0.4-0.6,0.8-0.8,1.4c-0.2,0.5-0.3,1.1-0.3,1.6c0,0.6,0.1,1.1,0.3,1.6c0.2,0.5,0.5,1,0.8,1.4
			c0.4,0.4,0.8,0.7,1.3,0.9c0.5,0.2,1.1,0.4,1.7,0.4c0.5,0,1-0.1,1.5-0.2c0.5-0.1,0.9-0.3,1.3-0.5v-3.3H55v-0.9h3.4v4.9
			c-0.6,0.3-1.2,0.6-1.8,0.7c-0.7,0.2-1.3,0.3-1.9,0.3c-0.7,0-1.4-0.1-2.1-0.4c-0.6-0.3-1.2-0.6-1.6-1.1c-0.5-0.5-0.8-1-1.1-1.6
			c-0.3-0.6-0.4-1.3-0.4-2.1c0-0.8,0.1-1.5,0.4-2.1c0.3-0.6,0.6-1.2,1.1-1.6c0.5-0.5,1-0.8,1.6-1.1c0.6-0.3,1.3-0.4,2.1-0.4
			c0.8,0,1.5,0.1,2.1,0.3c0.6,0.2,1.1,0.6,1.5,1L57.4,466.9z"/>
		<path class="st1" d="M61.4,475h-0.9v-6.6h0.9V475z M61.6,465.9c0,0.2-0.1,0.4-0.2,0.5c-0.1,0.1-0.3,0.2-0.5,0.2
			c-0.2,0-0.3-0.1-0.5-0.2c-0.1-0.1-0.2-0.3-0.2-0.5c0-0.2,0.1-0.4,0.2-0.5c0.1-0.1,0.3-0.2,0.5-0.2c0.2,0,0.3,0.1,0.5,0.2
			C61.5,465.6,61.6,465.7,61.6,465.9"/>
		<path class="st1" d="M63.9,468.4c0,0.2,0,0.4,0,0.5c0,0.2,0,0.3,0,0.5h0c0.1-0.2,0.2-0.3,0.4-0.5c0.2-0.1,0.3-0.3,0.5-0.4
			c0.2-0.1,0.4-0.2,0.6-0.3c0.2-0.1,0.4-0.1,0.7-0.1c0.8,0,1.5,0.2,1.9,0.7c0.4,0.4,0.6,1.1,0.6,1.9v4.2h-0.9v-3.6
			c0-0.7-0.1-1.3-0.4-1.7c-0.3-0.4-0.7-0.6-1.4-0.6c0,0-0.2,0-0.4,0.1c-0.2,0-0.4,0.1-0.7,0.3c-0.2,0.2-0.5,0.4-0.6,0.8
			c-0.2,0.3-0.3,0.8-0.3,1.4v3.4h-0.9v-5.1c0-0.2,0-0.4,0-0.7c0-0.3,0-0.5,0-0.8H63.9z"/>
		<path class="st1" d="M75.5,471.2c0-0.6-0.2-1.1-0.6-1.5c-0.4-0.4-0.9-0.6-1.6-0.6c-0.3,0-0.6,0.1-0.9,0.2
			c-0.3,0.1-0.5,0.3-0.7,0.5c-0.2,0.2-0.4,0.4-0.5,0.7c-0.1,0.3-0.2,0.5-0.2,0.8H75.5z M71,472c0,0.3,0.1,0.6,0.2,0.9
			c0.1,0.3,0.3,0.5,0.5,0.7c0.2,0.2,0.5,0.4,0.7,0.5c0.3,0.1,0.6,0.2,0.9,0.2c0.5,0,0.9-0.1,1.3-0.3c0.4-0.2,0.6-0.5,0.8-0.8
			l0.7,0.6c-0.4,0.5-0.8,0.9-1.3,1.1c-0.5,0.2-1,0.3-1.5,0.3c-0.5,0-0.9-0.1-1.4-0.3c-0.4-0.2-0.8-0.4-1.1-0.7
			c-0.3-0.3-0.5-0.7-0.7-1.1c-0.2-0.4-0.3-0.9-0.3-1.4c0-0.5,0.1-1,0.3-1.4c0.2-0.4,0.4-0.8,0.7-1.1c0.3-0.3,0.6-0.5,1.1-0.7
			c0.4-0.2,0.8-0.3,1.3-0.3c0.5,0,0.9,0.1,1.3,0.3c0.4,0.2,0.7,0.4,1,0.7c0.3,0.3,0.5,0.6,0.6,1c0.1,0.4,0.2,0.8,0.2,1.3v0.4H71z"/>
		<path class="st1" d="M82.8,470c-0.2-0.2-0.4-0.4-0.7-0.6c-0.3-0.2-0.6-0.3-1-0.3c-0.4,0-0.7,0.1-1,0.2c-0.3,0.1-0.6,0.3-0.8,0.5
			c-0.2,0.2-0.4,0.5-0.5,0.8c-0.1,0.3-0.2,0.7-0.2,1c0,0.4,0.1,0.7,0.2,1c0.1,0.3,0.3,0.6,0.5,0.8c0.2,0.2,0.5,0.4,0.8,0.5
			c0.3,0.1,0.6,0.2,1,0.2c0.4,0,0.7-0.1,1-0.3c0.3-0.2,0.5-0.4,0.7-0.6l0.8,0.6c-0.3,0.4-0.7,0.7-1.1,0.8c-0.4,0.2-0.8,0.3-1.3,0.3
			c-0.5,0-1-0.1-1.4-0.2c-0.4-0.2-0.8-0.4-1.1-0.7c-0.3-0.3-0.5-0.7-0.7-1.1c-0.2-0.4-0.2-0.9-0.2-1.4c0-0.5,0.1-1,0.2-1.4
			c0.2-0.4,0.4-0.8,0.7-1.1c0.3-0.3,0.7-0.5,1.1-0.7c0.4-0.2,0.9-0.3,1.4-0.2c0.4,0,0.9,0.1,1.3,0.3c0.4,0.2,0.8,0.5,1.1,0.8
			L82.8,470z"/>
		<path class="st1" d="M90.5,471.7c0-0.4-0.1-0.7-0.2-1c-0.1-0.3-0.3-0.6-0.5-0.8c-0.2-0.2-0.5-0.4-0.8-0.6c-0.3-0.1-0.6-0.2-1-0.2
			c-0.4,0-0.7,0.1-1,0.2c-0.3,0.1-0.6,0.3-0.8,0.6c-0.2,0.2-0.4,0.5-0.5,0.8c-0.1,0.3-0.2,0.7-0.2,1c0,0.4,0.1,0.7,0.2,1
			c0.1,0.3,0.3,0.6,0.5,0.8c0.2,0.2,0.5,0.4,0.8,0.6c0.3,0.1,0.6,0.2,1,0.2c0.4,0,0.7-0.1,1-0.2c0.3-0.1,0.6-0.3,0.8-0.6
			c0.2-0.2,0.4-0.5,0.5-0.8C90.4,472.4,90.5,472.1,90.5,471.7 M91.5,471.7c0,0.5-0.1,1-0.3,1.4c-0.2,0.4-0.4,0.8-0.7,1.1
			c-0.3,0.3-0.7,0.5-1.1,0.7c-0.4,0.2-0.9,0.3-1.4,0.3c-0.5,0-1-0.1-1.4-0.3c-0.4-0.2-0.8-0.4-1.1-0.7c-0.3-0.3-0.5-0.7-0.7-1.1
			c-0.2-0.4-0.3-0.9-0.3-1.4c0-0.5,0.1-1,0.3-1.4c0.2-0.4,0.4-0.8,0.7-1.1s0.7-0.5,1.1-0.7c0.4-0.2,0.9-0.3,1.4-0.3
			c0.5,0,1,0.1,1.4,0.3c0.4,0.2,0.8,0.4,1.1,0.7c0.3,0.3,0.5,0.7,0.7,1.1C91.4,470.8,91.5,471.2,91.5,471.7"/>
	</g>
	<rect x="93" y="464.4" class="st1" width="0.9" height="10.6"/>
	<g>
		<path class="st1" d="M101.4,471.7c0-0.4-0.1-0.7-0.2-1c-0.1-0.3-0.3-0.6-0.5-0.8c-0.2-0.2-0.5-0.4-0.8-0.6c-0.3-0.1-0.6-0.2-1-0.2
			c-0.4,0-0.7,0.1-1,0.2c-0.3,0.1-0.6,0.3-0.8,0.6c-0.2,0.2-0.4,0.5-0.5,0.8c-0.1,0.3-0.2,0.7-0.2,1c0,0.4,0.1,0.7,0.2,1
			c0.1,0.3,0.3,0.6,0.5,0.8c0.2,0.2,0.5,0.4,0.8,0.6c0.3,0.1,0.6,0.2,1,0.2c0.4,0,0.7-0.1,1-0.2c0.3-0.1,0.6-0.3,0.8-0.6
			c0.2-0.2,0.4-0.5,0.5-0.8C101.4,472.4,101.4,472.1,101.4,471.7 M102.4,471.7c0,0.5-0.1,1-0.3,1.4c-0.2,0.4-0.4,0.8-0.7,1.1
			c-0.3,0.3-0.7,0.5-1.1,0.7c-0.4,0.2-0.9,0.3-1.4,0.3c-0.5,0-1-0.1-1.4-0.3c-0.4-0.2-0.8-0.4-1.1-0.7c-0.3-0.3-0.5-0.7-0.7-1.1
			c-0.2-0.4-0.3-0.9-0.3-1.4c0-0.5,0.1-1,0.3-1.4c0.2-0.4,0.4-0.8,0.7-1.1s0.7-0.5,1.1-0.7c0.4-0.2,0.9-0.3,1.4-0.3
			c0.5,0,1,0.1,1.4,0.3c0.4,0.2,0.8,0.4,1.1,0.7s0.5,0.7,0.7,1.1C102.4,470.8,102.4,471.2,102.4,471.7"/>
		<path class="st1" d="M104.7,471.6c0,0.3,0.1,0.7,0.2,1c0.1,0.3,0.3,0.6,0.5,0.8c0.2,0.2,0.5,0.4,0.8,0.5c0.3,0.1,0.6,0.2,1,0.2
			c0.3,0,0.7-0.1,1-0.2c0.3-0.1,0.6-0.3,0.8-0.5c0.2-0.2,0.4-0.5,0.5-0.8c0.1-0.3,0.2-0.7,0.2-1c0-0.3-0.1-0.7-0.2-1
			c-0.1-0.3-0.3-0.6-0.5-0.8c-0.2-0.2-0.5-0.4-0.8-0.5c-0.3-0.1-0.7-0.2-1-0.2c-0.3,0-0.7,0.1-1,0.2c-0.3,0.1-0.6,0.3-0.8,0.5
			c-0.2,0.2-0.4,0.5-0.5,0.8C104.7,471,104.7,471.3,104.7,471.6 M104.5,476.3c0.3,0.4,0.6,0.7,1.1,0.9c0.4,0.2,0.9,0.3,1.5,0.3
			c0.5,0,0.9-0.1,1.2-0.2c0.3-0.1,0.6-0.3,0.8-0.6c0.2-0.2,0.3-0.5,0.4-0.8c0.1-0.3,0.1-0.6,0.1-1v-1.2h0c-0.3,0.4-0.7,0.8-1.1,1
			c-0.4,0.2-0.9,0.3-1.4,0.3c-0.5,0-0.9-0.1-1.3-0.3c-0.4-0.2-0.8-0.4-1.1-0.7c-0.3-0.3-0.6-0.6-0.7-1.1c-0.2-0.4-0.3-0.9-0.3-1.3
			c0-0.5,0.1-0.9,0.3-1.3c0.2-0.4,0.4-0.8,0.7-1.1c0.3-0.3,0.6-0.5,1.1-0.7c0.4-0.2,0.9-0.3,1.3-0.3c0.2,0,0.4,0,0.6,0.1
			c0.2,0,0.4,0.1,0.7,0.2c0.2,0.1,0.4,0.2,0.7,0.4c0.2,0.2,0.4,0.4,0.6,0.6h0v-1.1h0.9v6.5c0,0.4,0,0.7-0.1,1.1
			c-0.1,0.4-0.3,0.8-0.5,1.1c-0.3,0.3-0.6,0.6-1.1,0.8c-0.5,0.2-1.1,0.3-1.8,0.3c-0.7,0-1.2-0.1-1.8-0.3c-0.5-0.2-1-0.5-1.4-1
			L104.5,476.3z"/>
		<path class="st1" d="M113.1,475h-0.9v-6.6h0.9V475z M113.3,465.9c0,0.2-0.1,0.4-0.2,0.5c-0.1,0.1-0.3,0.2-0.5,0.2
			c-0.2,0-0.3-0.1-0.5-0.2c-0.1-0.1-0.2-0.3-0.2-0.5c0-0.2,0.1-0.4,0.2-0.5c0.1-0.1,0.3-0.2,0.5-0.2c0.2,0,0.3,0.1,0.5,0.2
			C113.2,465.6,113.3,465.7,113.3,465.9"/>
		<path class="st1" d="M118.7,471.7c-0.2,0-0.5,0-0.9,0c-0.4,0-0.7,0.1-1,0.2c-0.3,0.1-0.6,0.2-0.8,0.4c-0.2,0.2-0.3,0.4-0.3,0.8
			c0,0.2,0,0.4,0.1,0.6c0.1,0.2,0.2,0.3,0.4,0.4c0.1,0.1,0.3,0.2,0.5,0.2c0.2,0,0.4,0.1,0.6,0.1c0.3,0,0.6-0.1,0.9-0.2
			c0.2-0.1,0.5-0.3,0.6-0.5c0.2-0.2,0.3-0.4,0.4-0.7c0.1-0.3,0.1-0.5,0.1-0.8v-0.5H118.7z M119.2,471v-0.2c0-1.1-0.6-1.7-1.7-1.7
			c-0.8,0-1.4,0.3-2,0.8l-0.6-0.7c0.6-0.6,1.5-1,2.8-1c0.3,0,0.6,0,0.9,0.1c0.3,0.1,0.5,0.2,0.8,0.4c0.2,0.2,0.4,0.4,0.5,0.7
			c0.1,0.3,0.2,0.6,0.2,1v2.9c0,0.3,0,0.5,0,0.8c0,0.3,0,0.5,0.1,0.7h-0.9c0-0.2,0-0.3-0.1-0.5c0-0.2,0-0.4,0-0.5h0
			c-0.3,0.4-0.6,0.8-1,0.9c-0.4,0.2-0.8,0.3-1.4,0.3c-0.3,0-0.6,0-0.8-0.1c-0.3-0.1-0.5-0.2-0.7-0.4c-0.2-0.2-0.4-0.4-0.5-0.6
			c-0.1-0.2-0.2-0.5-0.2-0.8c0-0.5,0.1-1,0.4-1.3c0.3-0.3,0.6-0.5,1-0.7c0.4-0.1,0.9-0.2,1.3-0.3c0.5,0,0.9-0.1,1.3-0.1H119.2z"/>
		<path class="st1" d="M130.9,471.2c0-0.6-0.2-1.1-0.6-1.5c-0.4-0.4-0.9-0.6-1.6-0.6c-0.3,0-0.6,0.1-0.9,0.2
			c-0.3,0.1-0.5,0.3-0.7,0.5c-0.2,0.2-0.4,0.4-0.5,0.7c-0.1,0.3-0.2,0.5-0.2,0.8H130.9z M126.4,472c0,0.3,0.1,0.6,0.2,0.9
			c0.1,0.3,0.3,0.5,0.5,0.7c0.2,0.2,0.5,0.4,0.7,0.5c0.3,0.1,0.6,0.2,0.9,0.2c0.5,0,0.9-0.1,1.3-0.3c0.4-0.2,0.6-0.5,0.8-0.8
			l0.7,0.6c-0.4,0.5-0.8,0.9-1.3,1.1c-0.5,0.2-1,0.3-1.5,0.3c-0.5,0-0.9-0.1-1.4-0.3c-0.4-0.2-0.8-0.4-1.1-0.7
			c-0.3-0.3-0.5-0.7-0.7-1.1c-0.2-0.4-0.3-0.9-0.3-1.4c0-0.5,0.1-1,0.3-1.4c0.2-0.4,0.4-0.8,0.7-1.1c0.3-0.3,0.6-0.5,1.1-0.7
			c0.4-0.2,0.8-0.3,1.3-0.3c0.5,0,0.9,0.1,1.3,0.3c0.4,0.2,0.7,0.4,1,0.7c0.3,0.3,0.5,0.6,0.6,1c0.1,0.4,0.2,0.8,0.2,1.3v0.4H126.4z
			"/>
		<path class="st2" d="M183.1,415.2c-0.4,1.7-1,3.3-1.8,4.8c-0.8,1.5-2,2.7-3.3,3.6c-1.4,0.9-3.1,1.4-5.1,1.3
			c-2.1,0-3.8-0.5-5.2-1.5c-1.4-1-2.4-2.2-3.2-3.7c-0.8-1.5-1.3-3.1-1.6-4.8c-0.3-1.7-0.4-3.4-0.4-5c0-1.5,0.2-3.2,0.6-4.9
			c0.4-1.7,1-3.3,1.8-4.8c0.8-1.4,1.9-2.6,3.3-3.5c1.4-0.9,3.1-1.4,5.2-1.3c2,0,3.7,0.5,5.1,1.5c1.4,1,2.4,2.2,3.2,3.6
			c0.8,1.5,1.3,3.1,1.6,4.8c0.3,1.8,0.4,3.4,0.4,5C183.7,411.8,183.5,413.5,183.1,415.2 M140.7,411.5c0,1.3-0.3,2.6-0.7,3.9
			c-0.5,1.3-1.1,2.5-2,3.5c-0.9,1.1-2,1.9-3.3,2.6c-1.3,0.7-2.8,1-4.5,1c-2.1,0-3.7-0.6-4.8-1.6c-1.1-1-2-2.1-2.5-3.4
			c-0.5-1.3-0.9-2.6-0.9-3.9c-0.1-1.3-0.1-2.2-0.1-2.8c0.1-3.2,0.6-5.9,1.6-8c1-2.1,2.2-3.8,3.6-5c1.4-1.2,3-2.1,4.6-2.6
			c1.6-0.5,3.1-0.7,4.5-0.7c0.9,0,1.7,0.1,2.3,0.1c0.6,0.1,1.1,0.2,1.5,0.2l1.2,0.3L140.7,411.5z M194.1,401.8
			c-0.7-2.8-1.9-5.4-3.6-7.7c-1.7-2.3-3.9-4.2-6.7-5.7c-2.8-1.5-6.2-2.2-10.3-2.3c-4-0.1-7.4,0.6-10.2,2c-2.8,1.4-5.1,3.3-6.9,5.6
			c-1.8,2.3-3.1,4.8-4,7.6c-0.6,2-1,4-1.2,6l0.4-19.6c0-0.1-0.4-0.2-1.2-0.4c-0.8-0.2-1.9-0.5-3.2-0.7c-1.3-0.3-2.8-0.5-4.3-0.7
			c-1.6-0.2-3.1-0.3-4.7-0.3c-5.2-0.1-9.5,0.6-13,2.1c-3.5,1.5-6.3,3.5-8.5,6c-2.2,2.5-3.7,5.4-4.7,8.7c-1,3.3-1.5,6.6-1.6,10.1
			c0,0.4,0,1.2,0.1,2.3c0.1,1.1,0.3,2.5,0.6,3.9c0.3,1.5,0.8,3,1.5,4.7c0.7,1.6,1.7,3.1,2.8,4.5c1.2,1.4,2.7,2.5,4.5,3.4
			c1.8,0.9,4.1,1.4,6.7,1.4c2.4,0,4.7-0.3,6.9-0.9c2.2-0.7,4.2-1.9,6-3.8l0.2-0.2c0.1-0.1,0.2-0.2,0.3-0.2c0.1,0,0.2,0.2,0.2,0.5
			l-0.1,5.2c0,1.5-0.2,3.2-0.5,5.3c-0.3,2-0.9,4-2,5.9c-1,1.9-2.6,3.5-4.6,4.8c-2,1.3-4.8,1.9-8.3,1.9l-1.4,0c-0.3,0-0.5,0-0.8-0.1
			l0.1-7.6l-9.3-0.2l-0.3,15.8c0.6,0.2,1.3,0.4,2.2,0.5c0.7,0.1,1.6,0.3,2.7,0.4c1.1,0.1,2.4,0.2,3.8,0.2c4.7,0.1,8.7-0.4,11.9-1.5
			c3.2-1.1,5.9-2.6,8.1-4.4c2.1-1.8,3.8-3.8,5-6.1c1.2-2.3,2.1-4.5,2.6-6.7c0.5-2.2,0.9-4.2,1-6.1c0.1-1.9,0.2-3.3,0.2-4.3l0.4-19.1
			c0.1,2.1,0.4,4.2,1,6.3c0.8,2.9,2,5.5,3.7,7.7c1.7,2.3,3.9,4.1,6.7,5.6c2,1,4.4,1.7,7,2v4.7h-3.4c-2,0-3.7,1.6-3.7,3.7v0.2
			c0,2,1.6,3.7,3.7,3.7h3.4v3.4c0,2,1.6,3.7,3.7,3.7h0.2c2,0,3.7-1.6,3.7-3.7v-3.4h3.4c2,0,3.7-1.6,3.7-3.7v-0.2
			c0-2-1.6-3.7-3.7-3.7h-3.4v-4.8c2.1-0.3,4-0.9,5.8-1.8c2.8-1.4,5.1-3.3,6.9-5.5c1.8-2.3,3.1-4.8,4-7.6c0.9-2.8,1.3-5.6,1.4-8.4
			C195.1,407.5,194.8,404.7,194.1,401.8"/>
		<path class="st1" d="M0.1,475.8L0.1,475.8c0.1,0,0.2,0,0.3-0.1c0.1,0,0.2,0,0.3,0c0.3,0,0.5,0.1,0.8,0.3c0.2,0.2,0.3,0.4,0.3,0.8
			c0,0.2,0,0.4-0.1,0.6c-0.1,0.2-0.2,0.3-0.4,0.4c-0.2,0.1-0.3,0.2-0.5,0.2c-0.2,0-0.4,0.1-0.6,0.1c-0.5,0-0.9-0.1-1.4-0.3l0.2-0.5
			c0.3,0.2,0.7,0.3,1,0.3c0.2,0,0.4,0,0.6-0.1c0.2-0.1,0.3-0.3,0.3-0.5c0,0,0-0.1,0-0.2c0-0.1-0.1-0.1-0.1-0.2
			c0-0.1-0.1-0.1-0.2-0.2c-0.1,0-0.2-0.1-0.4-0.1c-0.1,0-0.2,0-0.4,0c-0.1,0-0.2,0.1-0.3,0.1l-0.3-0.2l0.8-1.1
			c-0.3,0-0.5-0.1-0.8-0.2c-0.4-0.2-0.8-0.4-1.1-0.7c-0.3-0.3-0.5-0.7-0.7-1.1c-0.2-0.4-0.2-0.9-0.2-1.4c0-0.5,0.1-1,0.2-1.4
			c0.2-0.4,0.4-0.8,0.7-1.1c0.3-0.3,0.7-0.5,1.1-0.7c0.4-0.2,0.9-0.3,1.4-0.2c0.4,0,0.9,0.1,1.3,0.3c0.4,0.2,0.8,0.5,1.1,0.8
			l-0.8,0.6c-0.2-0.2-0.4-0.4-0.7-0.6c-0.3-0.2-0.6-0.3-1-0.3c-0.4,0-0.7,0.1-1,0.2c-0.3,0.1-0.6,0.3-0.8,0.5
			c-0.2,0.2-0.4,0.5-0.5,0.8c-0.1,0.3-0.2,0.7-0.2,1c0,0.4,0.1,0.7,0.2,1c0.1,0.3,0.3,0.6,0.5,0.8c0.2,0.2,0.5,0.4,0.8,0.5
			c0.3,0.1,0.6,0.2,1,0.2c0.4,0,0.7-0.1,1-0.3c0.3-0.2,0.5-0.4,0.7-0.6l0.8,0.6c-0.3,0.4-0.7,0.7-1.1,0.8c-0.4,0.2-0.8,0.3-1.3,0.3
			H0.6L0.1,475.8z"/>
		<path class="st1" d="M5.2,467.3c0-0.2,0.1-0.4,0.1-0.5c0.1-0.2,0.1-0.3,0.2-0.5c0.1-0.1,0.2-0.2,0.4-0.3c0.1-0.1,0.3-0.1,0.5-0.1
			c0.2,0,0.3,0,0.5,0.1c0.2,0.1,0.3,0.1,0.5,0.2c0.2,0.1,0.3,0.1,0.5,0.2c0.2,0.1,0.3,0.1,0.4,0.1c0.2,0,0.4-0.1,0.5-0.2
			c0.1-0.1,0.2-0.3,0.2-0.5h0.6c0,0.2-0.1,0.4-0.1,0.5c-0.1,0.2-0.1,0.3-0.2,0.5c-0.1,0.1-0.2,0.2-0.4,0.3c-0.1,0.1-0.3,0.1-0.5,0.1
			c-0.2,0-0.3,0-0.5-0.1c-0.2-0.1-0.3-0.1-0.5-0.2c-0.2-0.1-0.3-0.2-0.5-0.2c-0.2-0.1-0.3-0.1-0.5-0.1c-0.2,0-0.4,0.1-0.5,0.2
			c-0.1,0.1-0.2,0.3-0.2,0.5H5.2z"/>
		<path class="st1" d="M9.9,471.6c0-0.4-0.1-0.7-0.2-1c-0.1-0.3-0.3-0.6-0.5-0.8c-0.2-0.2-0.5-0.4-0.8-0.6c-0.3-0.1-0.6-0.2-1-0.2
			c-0.4,0-0.7,0.1-1,0.2c-0.3,0.1-0.6,0.3-0.8,0.6c-0.2,0.2-0.4,0.5-0.5,0.8c-0.1,0.3-0.2,0.7-0.2,1c0,0.4,0.1,0.7,0.2,1
			c0.1,0.3,0.3,0.6,0.5,0.8c0.2,0.2,0.5,0.4,0.8,0.6c0.3,0.1,0.6,0.2,1,0.2c0.4,0,0.7-0.1,1-0.2c0.3-0.1,0.6-0.3,0.8-0.6
			c0.2-0.2,0.4-0.5,0.5-0.8C9.9,472.3,9.9,472,9.9,471.6 M10.9,471.6c0,0.5-0.1,1-0.3,1.4c-0.2,0.4-0.4,0.8-0.7,1.1
			c-0.3,0.3-0.7,0.5-1.1,0.7c-0.4,0.2-0.9,0.3-1.4,0.3c-0.5,0-1-0.1-1.4-0.3c-0.4-0.2-0.8-0.4-1.1-0.7c-0.3-0.3-0.5-0.7-0.7-1.1
			c-0.2-0.4-0.3-0.9-0.3-1.4c0-0.5,0.1-1,0.3-1.4c0.2-0.4,0.4-0.8,0.7-1.1c0.3-0.3,0.7-0.5,1.1-0.7c0.4-0.2,0.9-0.3,1.4-0.3
			c0.5,0,1,0.1,1.4,0.3c0.4,0.2,0.8,0.4,1.1,0.7c0.3,0.3,0.5,0.7,0.7,1.1C10.8,470.7,10.9,471.1,10.9,471.6"/>
		<path class="st1" d="M23.7,469.9c-0.1-0.3-0.3-0.5-0.6-0.6c-0.2-0.2-0.5-0.2-0.9-0.2c-0.2,0-0.3,0-0.5,0.1c-0.2,0-0.3,0.1-0.4,0.2
			c-0.1,0.1-0.2,0.2-0.3,0.3c-0.1,0.1-0.1,0.3-0.1,0.4c0,0.3,0.1,0.5,0.3,0.7c0.2,0.1,0.5,0.3,1,0.4l0.9,0.2
			c0.5,0.1,0.8,0.3,1.1,0.6c0.3,0.3,0.5,0.7,0.5,1.2c0,0.4-0.1,0.7-0.2,0.9c-0.1,0.3-0.3,0.5-0.6,0.6c-0.2,0.2-0.5,0.3-0.8,0.4
			c-0.3,0.1-0.6,0.1-0.9,0.1c-0.5,0-1-0.1-1.4-0.3c-0.4-0.2-0.8-0.5-1.1-1l0.8-0.5c0.2,0.3,0.4,0.5,0.7,0.7c0.3,0.2,0.6,0.3,1,0.3
			c0.2,0,0.4,0,0.6-0.1c0.2,0,0.4-0.1,0.5-0.2c0.1-0.1,0.3-0.2,0.4-0.3c0.1-0.1,0.1-0.3,0.1-0.5c0-0.3-0.1-0.6-0.4-0.7
			c-0.2-0.1-0.5-0.3-0.9-0.3l-0.9-0.2c-0.1,0-0.3-0.1-0.5-0.1c-0.2-0.1-0.4-0.2-0.6-0.3c-0.2-0.1-0.3-0.3-0.5-0.5
			c-0.1-0.2-0.2-0.5-0.2-0.8c0-0.3,0.1-0.6,0.2-0.9c0.1-0.3,0.3-0.5,0.5-0.6c0.2-0.2,0.5-0.3,0.8-0.4c0.3-0.1,0.6-0.1,0.9-0.1
			c0.5,0,0.9,0.1,1.3,0.3c0.4,0.2,0.7,0.5,0.9,0.9L23.7,469.9z"/>
		<path class="st1" d="M-14,469.9c-0.2-0.2-0.4-0.4-0.7-0.6c-0.3-0.2-0.6-0.3-1-0.3c-0.4,0-0.7,0.1-1,0.2c-0.3,0.1-0.6,0.3-0.8,0.5
			c-0.2,0.2-0.4,0.5-0.5,0.8c-0.1,0.3-0.2,0.7-0.2,1c0,0.4,0.1,0.7,0.2,1c0.1,0.3,0.3,0.6,0.5,0.8c0.2,0.2,0.5,0.4,0.8,0.5
			c0.3,0.1,0.6,0.2,1,0.2c0.4,0,0.7-0.1,1-0.3c0.3-0.2,0.5-0.4,0.7-0.6l0.8,0.6c-0.3,0.4-0.7,0.7-1.1,0.8c-0.4,0.2-0.8,0.3-1.3,0.3
			c-0.5,0-1-0.1-1.4-0.2c-0.4-0.2-0.8-0.4-1.1-0.7c-0.3-0.3-0.5-0.7-0.7-1.1c-0.2-0.4-0.2-0.9-0.2-1.4c0-0.5,0.1-1,0.2-1.4
			c0.2-0.4,0.4-0.8,0.7-1.1c0.3-0.3,0.7-0.5,1.1-0.7c0.4-0.2,0.9-0.3,1.4-0.2c0.4,0,0.9,0.1,1.3,0.3c0.4,0.2,0.8,0.5,1.1,0.8
			L-14,469.9z"/>
		<path class="st1" d="M-21.3,471.6c0-0.4-0.1-0.7-0.2-1c-0.1-0.3-0.3-0.6-0.5-0.8c-0.2-0.2-0.5-0.4-0.8-0.6c-0.3-0.1-0.6-0.2-1-0.2
			c-0.4,0-0.7,0.1-1,0.2c-0.3,0.1-0.6,0.3-0.8,0.6c-0.2,0.2-0.4,0.5-0.5,0.8c-0.1,0.3-0.2,0.7-0.2,1c0,0.4,0.1,0.7,0.2,1
			c0.1,0.3,0.3,0.6,0.5,0.8c0.2,0.2,0.5,0.4,0.8,0.6c0.3,0.1,0.6,0.2,1,0.2c0.4,0,0.7-0.1,1-0.2c0.3-0.1,0.6-0.3,0.8-0.6
			c0.2-0.2,0.4-0.5,0.5-0.8C-21.3,472.3-21.3,472-21.3,471.6 M-20.3,471.6c0,0.5-0.1,1-0.3,1.4c-0.2,0.4-0.4,0.8-0.7,1.1
			c-0.3,0.3-0.7,0.5-1.1,0.7c-0.4,0.2-0.9,0.3-1.4,0.3c-0.5,0-1-0.1-1.4-0.3c-0.4-0.2-0.8-0.4-1.1-0.7c-0.3-0.3-0.5-0.7-0.7-1.1
			c-0.2-0.4-0.3-0.9-0.3-1.4c0-0.5,0.1-1,0.3-1.4c0.2-0.4,0.4-0.8,0.7-1.1c0.3-0.3,0.7-0.5,1.1-0.7c0.4-0.2,0.9-0.3,1.4-0.3
			c0.5,0,1,0.1,1.4,0.3c0.4,0.2,0.8,0.4,1.1,0.7c0.3,0.3,0.5,0.7,0.7,1.1C-20.4,470.7-20.3,471.1-20.3,471.6"/>
		<path class="st1" d="M-10.9,475.1h-0.9v-6.6h0.9V475.1z M-10.6,466c0,0.2-0.1,0.4-0.2,0.5c-0.1,0.1-0.3,0.2-0.5,0.2
			c-0.2,0-0.3-0.1-0.5-0.2c-0.1-0.1-0.2-0.3-0.2-0.5c0-0.2,0.1-0.4,0.2-0.5c0.1-0.1,0.3-0.2,0.5-0.2c0.2,0,0.3,0.1,0.5,0.2
			C-10.7,465.6-10.6,465.8-10.6,466"/>
		<path class="st1" d="M-5.4,471.6c-0.2,0-0.5,0-0.9,0c-0.4,0-0.7,0.1-1,0.2c-0.3,0.1-0.6,0.2-0.8,0.4c-0.2,0.2-0.3,0.4-0.3,0.8
			c0,0.2,0,0.4,0.1,0.6c0.1,0.2,0.2,0.3,0.4,0.4c0.1,0.1,0.3,0.2,0.5,0.2c0.2,0,0.4,0.1,0.6,0.1c0.3,0,0.6-0.1,0.9-0.2
			c0.2-0.1,0.5-0.3,0.6-0.5c0.2-0.2,0.3-0.4,0.4-0.7c0.1-0.3,0.1-0.5,0.1-0.8v-0.5H-5.4z M-4.9,470.9v-0.2c0-1.1-0.6-1.7-1.7-1.7
			c-0.8,0-1.4,0.3-2,0.8l-0.6-0.7c0.6-0.6,1.5-1,2.8-1c0.3,0,0.6,0,0.9,0.1c0.3,0.1,0.5,0.2,0.8,0.4c0.2,0.2,0.4,0.4,0.5,0.7
			c0.1,0.3,0.2,0.6,0.2,1v2.9c0,0.3,0,0.5,0,0.8c0,0.3,0,0.5,0.1,0.7h-0.9c0-0.2,0-0.3-0.1-0.5c0-0.2,0-0.4,0-0.5h0
			c-0.3,0.4-0.6,0.8-1,0.9c-0.4,0.2-0.8,0.3-1.4,0.3c-0.3,0-0.6,0-0.8-0.1c-0.3-0.1-0.5-0.2-0.7-0.4c-0.2-0.2-0.4-0.4-0.5-0.6
			s-0.2-0.5-0.2-0.8c0-0.5,0.1-1,0.4-1.3c0.3-0.3,0.6-0.5,1-0.7c0.4-0.1,0.9-0.2,1.3-0.3c0.5,0,0.9-0.1,1.3-0.1H-4.9z"/>
		<path class="st1" d="M17.6,471.1c0-0.6-0.2-1.1-0.6-1.5c-0.4-0.4-0.9-0.6-1.6-0.6c-0.3,0-0.6,0.1-0.9,0.2
			c-0.3,0.1-0.5,0.3-0.7,0.5c-0.2,0.2-0.4,0.4-0.5,0.7c-0.1,0.3-0.2,0.5-0.2,0.8H17.6z M13.2,471.9c0,0.3,0.1,0.6,0.2,0.9
			c0.1,0.3,0.3,0.5,0.5,0.7c0.2,0.2,0.5,0.4,0.7,0.5c0.3,0.1,0.6,0.2,0.9,0.2c0.5,0,0.9-0.1,1.3-0.3c0.4-0.2,0.6-0.5,0.8-0.8
			l0.7,0.6c-0.4,0.5-0.8,0.9-1.3,1.1c-0.5,0.2-1,0.3-1.5,0.3c-0.5,0-0.9-0.1-1.4-0.3c-0.4-0.2-0.8-0.4-1.1-0.7
			c-0.3-0.3-0.5-0.7-0.7-1.1c-0.2-0.4-0.3-0.9-0.3-1.4c0-0.5,0.1-1,0.3-1.4c0.2-0.4,0.4-0.8,0.7-1.1c0.3-0.3,0.6-0.5,1.1-0.7
			c0.4-0.2,0.8-0.3,1.3-0.3c0.5,0,0.9,0.1,1.3,0.3c0.4,0.2,0.7,0.4,1,0.7c0.3,0.3,0.5,0.6,0.6,1c0.1,0.4,0.2,0.8,0.2,1.3v0.4H13.2z"
			/>
		<path class="st1" d="M-35.5,469.9c-0.1-0.3-0.3-0.5-0.6-0.6c-0.2-0.2-0.5-0.2-0.9-0.2c-0.2,0-0.3,0-0.5,0.1
			c-0.2,0-0.3,0.1-0.4,0.2c-0.1,0.1-0.2,0.2-0.3,0.3c-0.1,0.1-0.1,0.3-0.1,0.4c0,0.3,0.1,0.5,0.3,0.7c0.2,0.1,0.5,0.3,1,0.4l0.9,0.2
			c0.5,0.1,0.8,0.3,1.1,0.6c0.3,0.3,0.5,0.7,0.5,1.2c0,0.4-0.1,0.7-0.2,0.9c-0.1,0.3-0.3,0.5-0.6,0.6c-0.2,0.2-0.5,0.3-0.8,0.4
			c-0.3,0.1-0.6,0.1-0.9,0.1c-0.5,0-1-0.1-1.4-0.3c-0.4-0.2-0.8-0.5-1.1-1l0.8-0.5c0.2,0.3,0.4,0.5,0.7,0.7c0.3,0.2,0.6,0.3,1,0.3
			c0.2,0,0.4,0,0.6-0.1c0.2,0,0.4-0.1,0.5-0.2c0.1-0.1,0.3-0.2,0.4-0.3c0.1-0.1,0.1-0.3,0.1-0.5c0-0.3-0.1-0.6-0.4-0.7
			c-0.2-0.1-0.5-0.3-0.9-0.3l-0.9-0.2c-0.1,0-0.3-0.1-0.5-0.1c-0.2-0.1-0.4-0.2-0.6-0.3c-0.2-0.1-0.3-0.3-0.5-0.5
			c-0.1-0.2-0.2-0.5-0.2-0.8c0-0.3,0.1-0.6,0.2-0.9c0.1-0.3,0.3-0.5,0.5-0.6c0.2-0.2,0.5-0.3,0.8-0.4c0.3-0.1,0.6-0.1,0.9-0.1
			c0.5,0,0.9,0.1,1.3,0.3c0.4,0.2,0.7,0.5,0.9,0.9L-35.5,469.9z"/>
		<path class="st1" d="M-29.4,469.9c-0.1-0.3-0.3-0.5-0.6-0.6c-0.2-0.2-0.5-0.2-0.9-0.2c-0.2,0-0.3,0-0.5,0.1
			c-0.2,0-0.3,0.1-0.4,0.2c-0.1,0.1-0.2,0.2-0.3,0.3c-0.1,0.1-0.1,0.3-0.1,0.4c0,0.3,0.1,0.5,0.3,0.7c0.2,0.1,0.5,0.3,1,0.4l0.9,0.2
			c0.5,0.1,0.8,0.3,1.1,0.6c0.3,0.3,0.5,0.7,0.5,1.2c0,0.4-0.1,0.7-0.2,0.9c-0.1,0.3-0.3,0.5-0.6,0.6c-0.2,0.2-0.5,0.3-0.8,0.4
			c-0.3,0.1-0.6,0.1-0.9,0.1c-0.5,0-1-0.1-1.4-0.3c-0.4-0.2-0.8-0.5-1.1-1l0.8-0.5c0.2,0.3,0.4,0.5,0.7,0.7c0.3,0.2,0.6,0.3,1,0.3
			c0.2,0,0.4,0,0.6-0.1c0.2,0,0.4-0.1,0.5-0.2c0.1-0.1,0.3-0.2,0.4-0.3c0.1-0.1,0.1-0.3,0.1-0.5c0-0.3-0.1-0.6-0.4-0.7
			c-0.2-0.1-0.5-0.3-0.9-0.3l-0.9-0.2c-0.1,0-0.3-0.1-0.5-0.1c-0.2-0.1-0.4-0.2-0.6-0.3c-0.2-0.1-0.3-0.3-0.5-0.5
			c-0.1-0.2-0.2-0.5-0.2-0.8c0-0.3,0.1-0.6,0.2-0.9c0.1-0.3,0.3-0.5,0.5-0.6c0.2-0.2,0.5-0.3,0.8-0.4c0.3-0.1,0.6-0.1,0.9-0.1
			c0.5,0,0.9,0.1,1.3,0.3c0.4,0.2,0.7,0.5,0.9,0.9L-29.4,469.9z"/>
	</g>
	<path class="st1" d="M-45,466.4l-2.2,5h4.3L-45,466.4z M-40.2,475.1h-1.2l-1.1-2.6h-5.2l-1.1,2.6h-1.1l4.3-10h1L-40.2,475.1z"/>
	<g>
		<path class="st1" d="M145.4,470c0-0.6-0.1-1.1-0.3-1.6c-0.2-0.5-0.5-1-0.8-1.4c-0.4-0.4-0.8-0.7-1.3-0.9c-0.5-0.2-1.1-0.4-1.7-0.4
			c-0.6,0-1.2,0.1-1.7,0.4c-0.5,0.2-0.9,0.5-1.3,0.9c-0.4,0.4-0.6,0.8-0.8,1.4c-0.2,0.5-0.3,1.1-0.3,1.6c0,0.6,0.1,1.1,0.3,1.6
			c0.2,0.5,0.5,1,0.8,1.4c0.4,0.4,0.8,0.7,1.3,0.9c0.5,0.2,1.1,0.4,1.7,0.4c0.6,0,1.2-0.1,1.7-0.4c0.5-0.2,0.9-0.5,1.3-0.9
			c0.4-0.4,0.6-0.8,0.8-1.4C145.3,471.2,145.4,470.6,145.4,470 M146.5,470c0,0.8-0.1,1.5-0.4,2.1c-0.3,0.6-0.6,1.2-1.1,1.6
			c-0.5,0.5-1,0.8-1.6,1.1c-0.6,0.3-1.3,0.4-2.1,0.4c-0.7,0-1.4-0.1-2.1-0.4c-0.6-0.3-1.2-0.6-1.6-1.1c-0.5-0.5-0.8-1-1.1-1.6
			c-0.3-0.6-0.4-1.3-0.4-2.1c0-0.8,0.1-1.5,0.4-2.1c0.3-0.6,0.6-1.2,1.1-1.6c0.5-0.5,1-0.8,1.6-1.1c0.6-0.3,1.3-0.4,2.1-0.4
			c0.7,0,1.4,0.1,2.1,0.4c0.6,0.3,1.2,0.6,1.6,1.1c0.5,0.5,0.8,1,1.1,1.6C146.3,468.6,146.5,469.3,146.5,470"/>
		<path class="st1" d="M153.7,471.7c0-0.4-0.1-0.7-0.2-1c-0.1-0.3-0.3-0.6-0.5-0.8c-0.2-0.2-0.5-0.4-0.8-0.6c-0.3-0.1-0.6-0.2-1-0.2
			c-0.4,0-0.7,0.1-1.1,0.2c-0.3,0.1-0.6,0.3-0.8,0.6c-0.2,0.2-0.4,0.5-0.5,0.8c-0.1,0.3-0.2,0.7-0.2,1c0,0.4,0.1,0.7,0.2,1
			c0.1,0.3,0.3,0.6,0.5,0.8c0.2,0.2,0.5,0.4,0.8,0.6c0.3,0.1,0.7,0.2,1.1,0.2c0.4,0,0.7-0.1,1-0.2c0.3-0.1,0.6-0.3,0.8-0.6
			c0.2-0.2,0.4-0.5,0.5-0.8C153.7,472.4,153.7,472.1,153.7,471.7 M147.8,464.4h0.9v5.1h0c0.1-0.2,0.3-0.4,0.5-0.6
			c0.2-0.2,0.4-0.3,0.6-0.4c0.2-0.1,0.5-0.2,0.7-0.2c0.2,0,0.5-0.1,0.7-0.1c0.5,0,1,0.1,1.4,0.3c0.4,0.2,0.8,0.4,1.1,0.7
			c0.3,0.3,0.5,0.7,0.7,1.1c0.2,0.4,0.3,0.9,0.3,1.4c0,0.5-0.1,1-0.3,1.4c-0.2,0.4-0.4,0.8-0.7,1.1c-0.3,0.3-0.7,0.5-1.1,0.7
			c-0.4,0.2-0.9,0.3-1.4,0.3c-0.2,0-0.4,0-0.7-0.1c-0.2,0-0.5-0.1-0.7-0.2c-0.2-0.1-0.4-0.2-0.6-0.4c-0.2-0.2-0.4-0.4-0.5-0.6h0v1.1
			h-0.9V464.4z"/>
		<path class="st1" d="M159.7,470c-0.1-0.3-0.3-0.5-0.6-0.6c-0.2-0.2-0.5-0.2-0.9-0.2c-0.2,0-0.3,0-0.5,0.1c-0.2,0-0.3,0.1-0.4,0.2
			c-0.1,0.1-0.2,0.2-0.3,0.3c-0.1,0.1-0.1,0.3-0.1,0.4c0,0.3,0.1,0.5,0.3,0.7c0.2,0.1,0.5,0.3,1,0.4l0.9,0.2
			c0.5,0.1,0.8,0.3,1.1,0.6c0.3,0.3,0.5,0.7,0.5,1.2c0,0.4-0.1,0.7-0.2,0.9c-0.1,0.3-0.3,0.5-0.6,0.6c-0.2,0.2-0.5,0.3-0.8,0.4
			c-0.3,0.1-0.6,0.1-0.9,0.1c-0.5,0-1-0.1-1.4-0.3c-0.4-0.2-0.8-0.5-1.1-1l0.8-0.5c0.2,0.3,0.4,0.5,0.7,0.7s0.6,0.3,1,0.3
			c0.2,0,0.4,0,0.6-0.1c0.2,0,0.4-0.1,0.5-0.2c0.1-0.1,0.3-0.2,0.4-0.3c0.1-0.1,0.1-0.3,0.1-0.5c0-0.3-0.1-0.6-0.4-0.7
			c-0.2-0.1-0.5-0.3-0.9-0.3l-0.9-0.2c-0.1,0-0.3-0.1-0.5-0.1c-0.2-0.1-0.4-0.2-0.6-0.3c-0.2-0.1-0.3-0.3-0.5-0.5s-0.2-0.5-0.2-0.8
			c0-0.3,0.1-0.6,0.2-0.9c0.1-0.3,0.3-0.5,0.5-0.6c0.2-0.2,0.5-0.3,0.8-0.4c0.3-0.1,0.6-0.1,0.9-0.1c0.5,0,0.9,0.1,1.3,0.3
			c0.4,0.2,0.7,0.5,0.9,0.9L159.7,470z"/>
		<path class="st1" d="M165.4,469.3h-1.9v3.9c0,0.2,0,0.4,0.1,0.6c0,0.2,0.1,0.3,0.2,0.4c0.1,0.1,0.2,0.1,0.3,0.2c0.1,0,0.2,0,0.4,0
			c0.2,0,0.3,0,0.5-0.1c0.2,0,0.3-0.1,0.5-0.2l0,0.9c-0.3,0.2-0.8,0.2-1.2,0.2c-0.2,0-0.4,0-0.6-0.1c-0.2,0-0.4-0.1-0.5-0.3
			c-0.2-0.1-0.3-0.3-0.4-0.5c-0.1-0.2-0.2-0.5-0.2-0.9v-4.1h-1.4v-0.8h1.4v-1.9h0.9v1.9h1.9V469.3z"/>
		<path class="st1" d="M171.6,471.2c0-0.6-0.2-1.1-0.6-1.5c-0.4-0.4-0.9-0.6-1.6-0.6c-0.3,0-0.6,0.1-0.9,0.2
			c-0.3,0.1-0.5,0.3-0.7,0.5c-0.2,0.2-0.4,0.4-0.5,0.7c-0.1,0.3-0.2,0.5-0.2,0.8H171.6z M167.2,472c0,0.3,0.1,0.6,0.2,0.9
			c0.1,0.3,0.3,0.5,0.5,0.7c0.2,0.2,0.5,0.4,0.7,0.5c0.3,0.1,0.6,0.2,0.9,0.2c0.5,0,0.9-0.1,1.3-0.3c0.4-0.2,0.6-0.5,0.8-0.8
			l0.7,0.6c-0.4,0.5-0.8,0.9-1.3,1.1c-0.5,0.2-1,0.3-1.5,0.3c-0.5,0-0.9-0.1-1.4-0.3c-0.4-0.2-0.8-0.4-1.1-0.7
			c-0.3-0.3-0.5-0.7-0.7-1.1c-0.2-0.4-0.3-0.9-0.3-1.4c0-0.5,0.1-1,0.3-1.4c0.2-0.4,0.4-0.8,0.7-1.1c0.3-0.3,0.6-0.5,1.1-0.7
			c0.4-0.2,0.8-0.3,1.3-0.3c0.5,0,0.9,0.1,1.3,0.3c0.4,0.2,0.7,0.4,1,0.7c0.3,0.3,0.5,0.6,0.6,1c0.1,0.4,0.2,0.8,0.2,1.3v0.4H167.2z
			"/>
		<path class="st1" d="M177.6,469.3h-1.9v3.9c0,0.2,0,0.4,0.1,0.6c0,0.2,0.1,0.3,0.2,0.4c0.1,0.1,0.2,0.1,0.3,0.2c0.1,0,0.2,0,0.4,0
			c0.2,0,0.3,0,0.5-0.1c0.2,0,0.3-0.1,0.5-0.2l0,0.9c-0.3,0.2-0.8,0.2-1.2,0.2c-0.2,0-0.4,0-0.6-0.1c-0.2,0-0.4-0.1-0.5-0.3
			c-0.2-0.1-0.3-0.3-0.4-0.5c-0.1-0.2-0.2-0.5-0.2-0.9v-4.1h-1.4v-0.8h1.4v-1.9h0.9v1.9h1.9V469.3z"/>
		<path class="st1" d="M178.8,470.5c0-0.3,0-0.6,0-0.9c0-0.3,0-0.7,0-1.2h0.9v1.2h0c0.1-0.2,0.2-0.3,0.3-0.5
			c0.1-0.2,0.3-0.3,0.4-0.4c0.2-0.1,0.4-0.2,0.6-0.3c0.2-0.1,0.5-0.1,0.8-0.1c0.3,0,0.5,0,0.7,0.1l-0.2,0.9c-0.1,0-0.3-0.1-0.5-0.1
			c-0.4,0-0.7,0.1-0.9,0.2c-0.3,0.1-0.5,0.3-0.6,0.5c-0.2,0.2-0.3,0.4-0.4,0.7c-0.1,0.2-0.1,0.5-0.1,0.7v3.7h-0.9V470.5z"/>
		<path class="st1" d="M191.2,470c-0.2-0.2-0.4-0.4-0.7-0.6c-0.3-0.2-0.6-0.3-1-0.3c-0.4,0-0.7,0.1-1,0.2c-0.3,0.1-0.6,0.3-0.8,0.5
			c-0.2,0.2-0.4,0.5-0.5,0.8c-0.1,0.3-0.2,0.7-0.2,1c0,0.4,0.1,0.7,0.2,1c0.1,0.3,0.3,0.6,0.5,0.8c0.2,0.2,0.5,0.4,0.8,0.5
			c0.3,0.1,0.6,0.2,1,0.2c0.4,0,0.7-0.1,1-0.3c0.3-0.2,0.5-0.4,0.7-0.6l0.8,0.6c-0.3,0.4-0.7,0.7-1.1,0.8c-0.4,0.2-0.8,0.3-1.3,0.3
			c-0.5,0-1-0.1-1.4-0.2c-0.4-0.2-0.8-0.4-1.1-0.7c-0.3-0.3-0.5-0.7-0.7-1.1c-0.2-0.4-0.2-0.9-0.2-1.4c0-0.5,0.1-1,0.2-1.4
			c0.2-0.4,0.4-0.8,0.7-1.1c0.3-0.3,0.7-0.5,1.1-0.7c0.4-0.2,0.9-0.3,1.4-0.2c0.4,0,0.9,0.1,1.3,0.3c0.4,0.2,0.8,0.5,1.1,0.8
			L191.2,470z"/>
		<path class="st1" d="M194.2,475h-0.9v-6.6h0.9V475z M194.4,465.9c0,0.2-0.1,0.4-0.2,0.5c-0.1,0.1-0.3,0.2-0.5,0.2
			c-0.2,0-0.3-0.1-0.5-0.2c-0.1-0.1-0.2-0.3-0.2-0.5c0-0.2,0.1-0.4,0.2-0.5c0.1-0.1,0.3-0.2,0.5-0.2c0.2,0,0.3,0.1,0.5,0.2
			C194.3,465.6,194.4,465.7,194.4,465.9"/>
		<path class="st1" d="M200,471.7c-0.2,0-0.5,0-0.9,0c-0.4,0-0.7,0.1-1,0.2c-0.3,0.1-0.6,0.2-0.8,0.4c-0.2,0.2-0.3,0.4-0.3,0.8
			c0,0.2,0,0.4,0.1,0.6c0.1,0.2,0.2,0.3,0.4,0.4c0.1,0.1,0.3,0.2,0.5,0.2c0.2,0,0.4,0.1,0.6,0.1c0.3,0,0.6-0.1,0.9-0.2
			c0.2-0.1,0.5-0.3,0.6-0.5c0.2-0.2,0.3-0.4,0.4-0.7c0.1-0.3,0.1-0.5,0.1-0.8v-0.5H200z M200.5,471v-0.2c0-1.1-0.6-1.7-1.7-1.7
			c-0.8,0-1.4,0.3-2,0.8l-0.6-0.7c0.6-0.6,1.5-1,2.8-1c0.3,0,0.6,0,0.9,0.1c0.3,0.1,0.5,0.2,0.8,0.4c0.2,0.2,0.4,0.4,0.5,0.7
			c0.1,0.3,0.2,0.6,0.2,1v2.9c0,0.3,0,0.5,0,0.8c0,0.3,0,0.5,0.1,0.7h-0.9c0-0.2,0-0.3-0.1-0.5c0-0.2,0-0.4,0-0.5h0
			c-0.3,0.4-0.6,0.8-1,0.9c-0.4,0.2-0.8,0.3-1.4,0.3c-0.3,0-0.6,0-0.8-0.1c-0.3-0.1-0.5-0.2-0.7-0.4c-0.2-0.2-0.4-0.4-0.5-0.6
			c-0.1-0.2-0.2-0.5-0.2-0.8c0-0.5,0.1-1,0.4-1.3c0.3-0.3,0.6-0.5,1-0.7c0.4-0.1,0.9-0.2,1.3-0.3c0.5,0,0.9-0.1,1.3-0.1H200.5z"/>
	</g>
	<rect x="183.4" y="468.4" class="st1" width="0.9" height="6.6"/>
	<polygon class="st1" points="183.4,467.1 184.7,465.3 185.7,465.7 184.2,467.1 	"/>
</g>
</svg>
